<?xml version="1.0" standalone="no"?>
<!DOCTYPE svg PUBLIC "-//W3C//DTD SVG 20010904//EN"
 "http://www.w3.org/TR/2001/REC-SVG-20010904/DTD/svg10.dtd">
<svg version="1.0" xmlns="http://www.w3.org/2000/svg"
 width="1366.000000pt" height="768.000000pt" viewBox="0 0 1366.000000 768.000000"
 preserveAspectRatio="xMidYMid meet">

<g transform="translate(0.000000,768.000000) scale(0.100000,-0.100000)"
fill="#000000" stroke="none">
<path d="M0 3840 l0 -3840 6830 0 6830 0 0 3840 0 3840 -6830 0 -6830 0 0
-3840z m840 3723 c0 -13 -3 -14 -12 -5 -16 16 -55 15 -61 0 -3 -8 -6 -6 -6 5
-1 13 7 17 39 17 31 0 40 -4 40 -17z m11416 -8 c4 -8 1 -22 -6 -30 -17 -20 -9
-70 12 -70 26 0 30 -11 11 -26 -9 -8 -14 -9 -10 -3 4 7 -2 14 -13 17 -15 4
-20 14 -20 39 0 19 -5 39 -11 45 -15 15 -4 43 16 43 9 0 18 -7 21 -15z m40 6
c-3 -5 3 -11 14 -14 15 -4 20 -14 20 -39 0 -19 5 -39 11 -45 15 -15 4 -43 -16
-43 -20 0 -31 28 -16 43 17 17 14 77 -5 77 -9 0 -12 -5 -8 -12 5 -9 2 -8 -9 1
-13 10 -15 17 -6 27 13 16 23 19 15 5z m309 -56 l0 -60 -60 0 -60 0 -3 49 c-5
73 -1 77 65 74 l58 -3 0 -60z m-11554 22 c14 -4 19 -13 17 -39 l-1 -33 -4 33
c-3 18 -10 32 -18 32 -8 0 -15 -14 -18 -32 -2 -19 -4 -9 -4 22 0 30 1 48 4 39
2 -10 13 -19 24 -22z m159 -18 c0 -46 -2 -50 -22 -47 -12 2 -23 9 -24 16 -1 7
0 8 3 2 10 -20 33 -10 33 15 0 26 -24 35 -33 13 -4 -10 -6 -10 -6 0 -1 8 8 16
19 19 11 3 20 12 20 19 0 8 2 14 5 14 3 0 5 -23 5 -51z m220 21 c20 0 31 -20
29 -53 -1 -16 -3 -14 -8 8 -3 17 -13 30 -21 30 -8 0 -18 -13 -21 -30 -5 -22
-7 -16 -7 25 0 30 2 47 5 38 2 -10 13 -18 23 -18z m10597 -1 l46 -32 -23 -17
c-13 -10 -36 -25 -52 -34 l-28 -17 0 65 c0 36 3 66 6 66 3 0 26 -14 51 -31z
m-10467 -54 c10 0 17 14 21 40 l6 40 2 -36 c1 -40 -17 -63 -43 -53 -11 4 -16
18 -15 48 l2 41 6 -40 c4 -26 11 -40 21 -40z m203 51 l22 19 -19 -22 c-19 -23
-19 -23 0 -45 l19 -23 -22 19 c-23 19 -23 19 -45 0 l-23 -19 19 23 c19 22 19
22 0 45 l-19 22 23 -19 c22 -19 22 -19 45 0z m-769 -12 c13 -35 7 -54 -19 -54
-32 0 -34 27 -2 39 l22 9 -25 10 c-23 10 -23 11 -4 11 12 1 25 -6 28 -15z
m140 0 c13 -35 7 -54 -19 -54 -32 0 -34 27 -2 39 l22 9 -25 10 c-23 10 -23 11
-4 11 12 1 25 -6 28 -15z m121 -44 c8 0 15 14 18 33 4 31 4 31 5 -6 2 -34 0
-38 -20 -35 -18 2 -24 10 -25 36 -3 32 -3 32 3 2 3 -16 11 -30 19 -30z m123
37 c2 -11 -3 -17 -15 -16 -10 0 -13 3 -5 6 17 7 15 21 -5 27 -14 4 -14 4 2 3
11 -1 21 -10 23 -20z m11382 -7 c0 -5 -4 -10 -10 -10 -5 0 -10 5 -10 10 0 6 5
10 10 10 6 0 10 -4 10 -10z m50 0 c0 -5 -4 -10 -10 -10 -5 0 -10 5 -10 10 0 6
5 10 10 10 6 0 10 -4 10 -10z m50 0 c0 -5 -4 -10 -10 -10 -5 0 -10 5 -10 10 0
6 5 10 10 10 6 0 10 -4 10 -10z m-11480 -32 c0 -4 -9 -8 -20 -8 -11 0 -20 4
-20 8 0 4 9 8 20 8 11 0 20 -4 20 -8z m187 -135 c-174 -2 -460 -2 -635 0 -174
1 -31 2 318 2 349 0 492 -1 317 -2z m-227 -50 c0 -13 -3 -14 -12 -5 -16 16
-55 15 -61 0 -3 -8 -6 -6 -6 5 -1 13 7 17 39 17 31 0 40 -4 40 -17z m211 -46
c10 -3 19 -11 18 -19 0 -10 -2 -10 -6 0 -10 24 -32 12 -36 -20 -2 -19 -4 -9
-4 22 0 30 1 48 4 39 2 -10 13 -19 24 -22z m159 -18 c0 -47 -2 -50 -22 -47
-32 4 -39 57 -9 65 12 3 21 12 21 19 0 8 2 14 5 14 3 0 5 -23 5 -51z m231 18
c14 -4 19 -13 17 -39 l-1 -33 -4 33 c-3 18 -10 32 -18 32 -8 0 -15 -14 -18
-32 -2 -19 -4 -9 -4 22 0 30 1 48 4 39 2 -10 13 -19 24 -22z m-959 -24 c-3
-15 1 -29 9 -35 12 -8 11 -9 -1 -5 -16 4 -30 52 -22 75 8 23 20 -6 14 -35z
m163 -21 l-29 -27 23 27 c24 27 24 28 6 50 l-19 23 24 -23 24 -22 -29 -28z
m-333 39 c-5 -3 -12 -15 -15 -26 -3 -13 -5 -9 -6 12 -1 26 2 31 15 26 9 -3 11
-9 6 -12z m76 -14 c2 -12 -3 -17 -17 -17 -23 0 -29 -16 -8 -23 7 -2 6 -3 -3
-3 -16 1 -25 29 -16 52 8 20 40 14 44 -9z m38 16 c-19 -5 -18 -6 4 -23 24 -18
20 -41 -8 -39 -15 1 -15 2 1 6 21 5 23 23 3 23 -8 0 -18 5 -21 10 -9 15 4 30
23 29 14 -1 13 -2 -2 -6z m112 0 c-24 -6 -23 -19 3 -26 25 -7 20 -32 -7 -33
-18 -1 -18 -1 0 3 19 5 19 6 -3 23 -25 18 -21 41 7 39 15 -1 15 -2 0 -6z m460
-31 c3 -30 1 -33 -19 -30 -30 4 -37 28 -10 35 26 7 27 20 4 27 -14 4 -14 4 2
3 15 -2 21 -11 23 -35z m140 0 c3 -30 1 -33 -19 -30 -30 4 -37 28 -10 35 26 7
27 20 4 27 -14 4 -14 4 2 3 15 -2 21 -11 23 -35z m152 3 c0 -28 -4 -35 -19
-35 -11 0 -22 4 -25 9 -4 5 3 7 14 4 17 -5 20 0 20 26 0 17 2 31 5 31 3 0 5
-16 5 -35z m94 19 c13 -34 7 -56 -16 -52 -30 4 -34 26 -6 37 l23 9 -25 10
c-23 10 -23 11 -4 11 12 1 25 -6 28 -15z m-446 -176 c18 -38 21 -78 6 -78 -9
0 -14 12 -14 35 0 19 -4 35 -10 35 -5 0 -10 -9 -10 -20 0 -11 -4 -20 -10 -20
-5 0 -10 9 -10 20 0 11 5 20 10 20 6 0 10 7 10 15 0 22 15 18 28 -7z m143 -20
c5 -21 4 -28 -7 -28 -8 0 -14 10 -14 25 0 14 -4 25 -9 25 -15 0 -23 -18 -11
-25 12 -8 13 -55 1 -55 -5 0 -12 18 -16 41 -7 42 -28 49 -33 11 -4 -26 -22
-29 -22 -4 0 29 22 43 64 40 34 -3 41 -7 47 -30z m64 18 c17 -17 15 -76 -3
-76 -8 0 -10 8 -6 25 7 27 -13 54 -35 47 -8 -3 -11 0 -7 7 10 15 35 14 51 -3z
m106 -13 c-4 -16 -4 -41 0 -57 9 -32 2 -29 -15 6 -9 18 -9 29 2 51 7 15 15 27
17 27 2 0 0 -12 -4 -27z m-267 -168 c-4 -16 -14 -35 -23 -42 -14 -10 -13 -13
12 -22 36 -14 34 -17 -13 -16 -22 0 -40 3 -40 8 0 4 4 7 9 7 4 0 6 11 3 25 -2
14 2 33 9 42 12 15 12 16 -3 10 -12 -4 -18 -2 -18 7 0 8 13 12 35 12 34 -1 35
-2 29 -31z m676 18 c0 -8 -7 -10 -17 -6 -15 6 -16 4 -5 -9 10 -13 9 -18 -4
-29 -14 -12 -14 -14 5 -21 21 -7 29 -28 11 -28 -5 0 -10 5 -10 11 0 8 -12 10
-35 6 -19 -3 -35 -2 -35 4 0 5 7 9 15 9 9 0 12 6 9 15 -4 8 0 23 7 32 12 15
12 16 -3 10 -11 -4 -18 -2 -18 6 0 7 16 12 40 12 26 1 40 -4 40 -12z m-786 -6
c15 -14 26 -87 15 -87 -4 0 -9 14 -11 32 -2 17 -9 33 -17 36 -10 3 -12 -4 -9
-32 3 -25 0 -36 -9 -36 -16 0 -17 38 0 73 14 31 14 31 31 14z m-60 -5 c8 -13
-18 -82 -32 -82 -10 0 -10 5 -2 20 8 14 8 20 0 20 -6 0 -15 10 -20 23 -8 21
-9 21 -9 -5 -1 -21 -6 -28 -21 -28 -23 0 -35 22 -26 45 4 11 20 15 55 15 27 0
52 -3 55 -8z m313 -8 c8 -20 -8 -48 -31 -52 -12 -3 -16 4 -16 27 0 17 -4 31
-10 31 -5 0 -10 -16 -10 -36 0 -31 -3 -35 -22 -32 -23 3 -35 35 -24 64 8 21
105 19 113 -2z m63 1 c0 -8 -9 -19 -20 -25 -23 -13 -27 -40 -5 -40 8 0 15 7
15 15 0 8 5 15 11 15 23 0 3 -35 -22 -38 -36 -4 -42 19 -16 57 24 33 37 39 37
16z m86 4 c3 -6 1 -16 -5 -22 -6 -6 -11 -21 -11 -34 0 -13 -4 -23 -9 -23 -5 0
-16 -3 -25 -6 -10 -4 -16 -1 -16 10 0 10 6 13 15 10 18 -7 20 17 4 33 -7 7 -9
19 -6 27 7 18 42 21 53 5z m211 -5 c8 -20 -8 -48 -31 -52 -12 -3 -16 4 -16 27
0 17 -4 31 -10 31 -5 0 -10 -16 -10 -36 0 -31 -3 -35 -22 -32 -23 3 -35 35
-24 64 8 21 105 19 113 -2z m63 1 c0 -8 -9 -19 -20 -25 -11 -6 -20 -18 -20
-27 0 -10 6 -14 20 -10 12 3 20 0 20 -8 0 -16 -47 -8 -54 10 -5 13 33 75 47
75 4 0 7 -7 7 -15z m-233 -47 c-3 -8 -6 -5 -6 6 -1 11 2 17 5 13 3 -3 4 -12 1
-19z m68 -127 c-4 -14 -14 -31 -23 -38 -16 -11 -15 -12 4 -13 12 0 24 -7 28
-15 6 -17 -9 -21 -20 -4 -3 6 -19 9 -35 7 -16 -3 -29 -1 -29 4 0 4 5 8 10 8 6
0 10 6 9 13 -3 23 1 37 11 37 5 0 7 -7 4 -15 -4 -8 -1 -15 5 -15 6 0 11 6 11
14 0 8 6 16 13 19 6 2 -1 4 -16 4 -16 0 -33 5 -38 10 -5 5 7 9 31 8 38 0 40
-2 35 -24z m451 -3 c-6 -15 -14 -28 -19 -28 -4 0 -5 5 -2 10 3 6 1 10 -4 10
-23 0 -6 -33 22 -43 18 -7 24 -27 7 -27 -5 0 -10 5 -10 11 0 8 -12 10 -35 6
-19 -3 -35 -2 -35 4 0 5 5 9 10 9 6 0 10 8 10 18 0 10 6 24 13 31 10 11 9 13
-5 8 -11 -4 -18 -1 -18 6 0 7 15 12 38 12 38 1 39 1 28 -27z m-936 -3 c0 -7
-7 -18 -17 -23 -10 -6 -14 -16 -10 -27 8 -18 34 -15 30 4 -2 6 2 11 8 11 6 0
9 -8 7 -17 -3 -18 -78 -38 -78 -21 0 4 4 8 9 8 4 0 6 11 3 25 -2 13 -2 31 2
40 7 19 46 20 46 0z m54 -1 c3 -9 6 -27 6 -40 0 -15 6 -24 16 -24 13 0 15 8
12 40 -2 28 0 40 9 40 17 0 17 -62 1 -78 -23 -23 -44 -13 -56 27 -7 21 -12 41
-12 45 0 13 18 5 24 -10z m264 -13 c4 -23 -11 -41 -35 -41 -8 0 -14 14 -15 33
l-1 32 -4 -33 c-3 -18 -11 -36 -19 -39 -18 -7 -44 14 -44 36 0 29 23 42 70 39
39 -3 45 -6 48 -27z m62 16 c0 -8 -9 -22 -20 -32 -22 -20 -18 -35 11 -35 10 0
19 -4 19 -9 0 -14 -51 0 -57 16 -3 8 4 24 16 37 12 12 18 26 14 29 -3 4 -1 7
5 7 7 0 12 -6 12 -13z m389 -1 c17 -20 -3 -56 -29 -56 -16 0 -20 7 -21 33 l-2
32 -6 -35 c-7 -41 -34 -52 -51 -21 -19 36 3 61 54 61 26 0 48 -6 55 -14z m71
6 c0 -5 -9 -17 -20 -27 -11 -10 -20 -25 -20 -33 0 -9 7 -13 20 -9 12 3 20 0
20 -8 0 -16 -50 -7 -57 11 -3 7 6 27 19 43 23 30 38 39 38 23z m-252 -29 c-10
-2 -26 -2 -35 0 -10 3 -2 5 17 5 19 0 27 -2 18 -5z m0 -20 c-10 -2 -26 -2 -35
0 -10 3 -2 5 17 5 19 0 27 -2 18 -5z m403 -46 c-10 -9 -11 -8 -5 6 3 10 9 15
12 12 3 -3 0 -11 -7 -18z m-991 -92 c0 -7 -7 -18 -17 -23 -10 -6 -14 -16 -10
-27 8 -18 34 -15 30 4 -2 6 2 11 8 11 6 0 9 -8 7 -17 -3 -18 -78 -38 -78 -21
0 4 4 8 9 8 4 0 6 11 3 25 -2 13 -2 31 2 40 7 19 46 20 46 0z m54 -1 c3 -9 6
-27 6 -40 0 -15 6 -24 16 -24 13 0 15 8 12 40 -2 28 0 40 9 40 17 0 17 -62 1
-78 -23 -23 -44 -13 -56 27 -7 21 -12 41 -12 45 0 13 18 5 24 -10z m226 -25
c0 -6 -7 -12 -15 -15 -8 -4 -15 -12 -15 -20 0 -8 -4 -14 -10 -14 -5 0 -10 5
-10 11 0 7 -8 18 -17 25 -17 12 -17 14 2 32 18 17 22 17 43 4 12 -8 22 -18 22
-23z m121 -6 c4 -32 2 -43 -8 -43 -9 0 -13 14 -13 40 0 30 -4 40 -16 40 -12 0
-15 -7 -12 -25 3 -14 1 -25 -3 -25 -5 0 -9 12 -9 26 0 31 -23 28 -28 -4 -2
-12 -8 -20 -13 -17 -30 19 13 57 60 53 34 -3 36 -5 42 -45z m89 32 c0 -9 -9
-19 -20 -23 -18 -7 -19 -10 -7 -26 14 -19 43 -14 32 5 -4 5 -1 9 5 9 6 0 10
-8 8 -17 -3 -18 -78 -38 -78 -21 0 4 4 8 9 8 4 0 6 11 3 25 -2 13 -2 31 2 40
7 20 46 20 46 0z m118 -22 c-10 -2 -26 -2 -35 0 -10 3 -2 5 17 5 19 0 27 -2
18 -5z m0 -20 c-10 -2 -26 -2 -35 0 -10 3 -2 5 17 5 19 0 27 -2 18 -5z m276
-38 c-4 -8 -8 -15 -10 -15 -2 0 -4 7 -4 15 0 8 4 15 10 15 5 0 7 -7 4 -15z
m-1039 -134 c3 -5 2 -12 -3 -15 -5 -3 -9 1 -9 9 0 17 3 19 12 6z m-138 -158
c10 -29 -1 -83 -17 -83 -5 0 -5 12 -1 28 4 15 4 39 0 55 -4 15 -4 27 1 27 4 0
12 -12 17 -27z m331 -355 c2 -10 -1 -18 -7 -18 -6 0 -11 7 -11 15 0 8 -4 15
-10 15 -12 0 -13 -17 -1 -24 15 -9 20 -56 6 -56 -11 0 -25 42 -25 77 0 21 44
12 48 -9z m62 12 c0 -5 7 -10 15 -10 8 0 15 -5 15 -11 0 -6 -7 -8 -16 -5 -13
5 -15 1 -12 -24 3 -20 0 -30 -9 -30 -8 0 -13 12 -13 30 0 22 -4 28 -15 24 -8
-4 -15 -1 -15 5 0 6 7 11 15 11 8 0 15 5 15 10 0 6 5 10 10 10 6 0 10 -4 10
-10z m100 -10 c0 -11 -5 -20 -11 -20 -5 0 -8 4 -4 9 3 5 0 13 -6 17 -12 7 -8
-20 7 -59 3 -10 -3 -16 -20 -19 -17 -4 -26 -1 -26 8 0 8 6 11 15 8 13 -5 14
-2 5 22 -14 35 -6 54 20 54 13 0 20 -7 20 -20z m73 6 c3 -8 0 -20 -8 -26 -7
-6 -11 -20 -8 -30 3 -11 1 -20 -5 -20 -6 0 -17 -3 -26 -6 -10 -4 -16 -1 -16
10 0 10 6 13 15 10 18 -7 19 0 4 27 -6 12 -8 27 -5 35 7 18 42 18 49 0z m37
-6 c0 -11 7 -20 15 -20 8 0 15 9 15 20 0 40 18 19 22 -25 2 -31 -1 -45 -9 -45
-7 0 -13 9 -13 20 0 12 -7 20 -16 20 -12 0 -15 -6 -11 -21 3 -13 1 -19 -6 -16
-15 5 -22 87 -8 87 6 0 11 -9 11 -20z m180 0 c0 -11 5 -20 10 -20 6 0 10 9 10
20 0 40 18 19 22 -25 3 -45 -9 -62 -19 -25 -3 11 -9 20 -14 20 -5 0 -9 -9 -9
-20 0 -40 -18 -19 -22 25 -2 31 1 45 9 45 7 0 13 -9 13 -20z m130 11 c0 -5 -8
-7 -19 -4 -14 3 -20 -2 -23 -21 -6 -31 5 -51 26 -43 10 4 16 1 16 -7 0 -11 -7
-12 -27 -7 -23 6 -29 14 -31 41 -4 34 9 50 41 50 9 0 17 -4 17 -9z m90 0 c0
-4 -12 -6 -27 -3 l-28 5 20 -24 c11 -13 24 -27 29 -30 10 -8 -1 -29 -15 -29
-5 0 -21 11 -35 24 -22 20 -24 27 -15 45 8 14 21 21 41 21 17 0 30 -4 30 -9z
m91 -18 c-4 -16 -4 -41 0 -57 9 -32 2 -29 -15 6 -9 18 -9 29 2 51 7 15 15 27
17 27 2 0 0 -12 -4 -27z m-363 -80 c-10 -2 -28 -2 -40 0 -13 2 -5 4 17 4 22 1
32 -1 23 -4z m-354 -88 c-4 -16 -14 -35 -23 -42 -14 -10 -13 -13 12 -22 36
-14 34 -17 -13 -16 -22 0 -40 3 -40 8 0 4 4 7 9 7 4 0 6 11 3 25 -2 14 2 33 9
42 12 15 12 16 -3 10 -12 -4 -18 -2 -18 7 0 8 13 12 35 12 34 -1 35 -2 29 -31z
m-110 12 c15 -14 26 -87 15 -87 -4 0 -9 14 -11 32 -2 17 -9 33 -17 36 -10 3
-12 -4 -9 -32 3 -25 0 -36 -9 -36 -16 0 -17 38 0 73 14 31 14 31 31 14z m-60
-5 c8 -13 -18 -82 -32 -82 -10 0 -10 5 -2 20 8 14 8 20 0 20 -6 0 -15 10 -20
23 -8 21 -9 21 -9 -5 -1 -21 -6 -28 -21 -28 -23 0 -35 22 -26 45 4 11 20 15
55 15 27 0 52 -3 55 -8z m313 -8 c8 -20 -8 -48 -31 -52 -12 -3 -16 4 -16 27 0
17 -4 31 -10 31 -5 0 -10 -16 -10 -36 0 -31 -3 -35 -22 -32 -23 3 -35 35 -24
64 8 21 105 19 113 -2z m63 1 c0 -8 -9 -19 -20 -25 -23 -13 -27 -40 -5 -40 8
0 15 7 15 15 0 8 5 15 11 15 23 0 3 -35 -22 -38 -36 -4 -42 19 -16 57 24 33
37 39 37 16z m86 4 c3 -6 1 -16 -5 -22 -6 -6 -11 -21 -11 -34 0 -13 -4 -23 -9
-23 -5 0 -16 -3 -25 -6 -10 -4 -16 -1 -16 10 0 10 6 13 15 10 18 -7 20 17 4
33 -7 7 -9 19 -6 27 7 18 42 21 53 5z m41 -51 c-3 -8 -6 -5 -6 6 -1 11 2 17 5
13 3 -3 4 -12 1 -19z m-47 -108 c0 -5 7 -10 15 -10 8 0 15 -7 15 -15 0 -8 7
-15 15 -15 8 0 15 -4 15 -10 0 -5 -7 -7 -16 -3 -14 5 -16 1 -12 -20 4 -19 1
-27 -8 -27 -8 0 -14 11 -14 25 0 18 -4 23 -15 19 -8 -4 -15 -1 -15 5 0 6 7 11
15 11 8 0 15 5 15 10 0 6 -4 10 -9 10 -5 0 -11 7 -15 15 -3 8 -1 15 4 15 6 0
10 -4 10 -10z m-370 -25 c0 -7 -7 -18 -17 -23 -10 -6 -14 -16 -10 -27 8 -18
34 -15 30 4 -2 6 2 11 8 11 6 0 9 -8 7 -17 -3 -18 -78 -38 -78 -21 0 4 4 8 9
8 4 0 6 11 3 25 -2 13 -2 31 2 40 7 19 46 20 46 0z m54 -1 c3 -9 6 -27 6 -40
0 -15 6 -24 16 -24 13 0 15 8 12 40 -2 28 0 40 9 40 17 0 17 -62 1 -78 -23
-23 -44 -13 -56 27 -7 21 -12 41 -12 45 0 13 18 5 24 -10z m174 -4 c9 -14 9
-26 3 -39 -6 -10 -7 -21 -4 -25 3 -3 1 -6 -6 -6 -9 0 -12 9 -8 27 3 15 1 36
-4 45 -13 25 3 23 19 -2z m112 11 c0 -5 -9 -7 -20 -4 -24 6 -28 -22 -5 -31 17
-6 21 -46 5 -46 -5 0 -10 9 -10 20 0 11 -7 20 -15 20 -18 0 -20 21 -3 38 14
14 48 16 48 3z m188 -28 c-10 -2 -26 -2 -35 0 -10 3 -2 5 17 5 19 0 27 -2 18
-5z m-265 -33 c3 -11 1 -20 -4 -20 -5 0 -9 2 -9 4 0 2 -3 11 -6 20 -3 9 -2 16
4 16 5 0 12 -9 15 -20z m265 13 c-10 -2 -26 -2 -35 0 -10 3 -2 5 17 5 19 0 27
-2 18 -5z m274 -45 c-7 -7 -12 -8 -12 -2 0 14 12 26 19 19 2 -3 -1 -11 -7 -17z
m-957 -127 c3 -5 2 -12 -3 -15 -5 -3 -9 1 -9 9 0 17 3 19 12 6z m159 -326 c-4
-16 -14 -35 -23 -42 -14 -11 -14 -13 7 -19 35 -10 26 -19 -19 -20 -32 0 -38 2
-26 11 10 7 13 16 7 25 -6 10 -4 23 7 39 14 22 14 24 -1 18 -9 -4 -16 -1 -16
6 0 7 14 12 35 12 34 0 35 -1 29 -30z m1331 6 c-4 -14 -14 -31 -23 -38 -16
-11 -15 -12 4 -13 12 0 24 -7 28 -15 3 -8 1 -15 -4 -15 -6 0 -10 5 -10 11 0 7
-14 10 -35 7 -19 -2 -35 0 -35 4 0 4 5 8 11 8 6 0 9 7 5 15 -3 8 2 21 10 30
14 13 14 15 0 15 -8 0 -17 4 -20 8 -2 4 13 8 35 7 37 0 39 -2 34 -24z m-559
10 c-3 -5 0 -11 8 -14 18 -7 27 -77 9 -77 -8 0 -13 13 -13 35 0 19 -4 35 -10
35 -12 0 -24 -45 -15 -59 3 -6 1 -11 -5 -11 -18 0 -22 25 -9 56 7 16 12 32 11
37 -1 4 5 7 14 7 8 0 13 -4 10 -9z m-861 -36 c0 -23 -5 -31 -22 -33 -20 -3
-23 1 -25 30 l-1 33 -4 -33 c-3 -18 -11 -36 -19 -39 -18 -7 -44 14 -44 36 0
29 23 42 70 39 43 -3 45 -5 45 -33z m226 19 c16 -20 1 -48 -30 -52 -18 -3 -21
2 -23 30 l-1 33 -4 -33 c-5 -39 -28 -52 -51 -29 -13 13 -13 21 -4 42 10 21 18
25 56 25 27 0 48 -6 57 -16z m69 8 c0 -5 -9 -17 -20 -27 -24 -21 -26 -45 -5
-45 8 0 15 7 15 15 0 8 5 15 11 15 24 0 2 -35 -24 -38 -38 -5 -45 20 -15 57
23 30 38 39 38 23z m83 -6 c3 -8 0 -20 -8 -26 -7 -6 -11 -20 -8 -30 3 -11 1
-20 -5 -20 -6 0 -17 -3 -26 -6 -10 -4 -16 -1 -16 10 0 10 6 13 15 10 18 -7 19
0 4 27 -6 12 -8 27 -5 35 7 18 42 18 49 0z m150 -31 c16 -46 4 -65 -13 -20 -5
14 -15 25 -21 25 -6 0 -9 -7 -5 -15 5 -15 -5 -21 -17 -9 -7 8 23 64 34 64 4 0
14 -20 22 -45z m103 33 c4 -6 3 -13 -2 -15 -24 -9 -34 -21 -28 -36 8 -21 34
-22 34 -1 0 8 5 12 10 9 18 -11 -10 -35 -40 -35 -16 0 -31 -6 -33 -12 -3 -8
-6 -6 -6 5 -1 9 4 17 10 17 6 0 8 9 4 20 -3 11 -3 29 0 40 7 22 39 27 51 8z
m128 0 c18 -19 46 -61 46 -70 0 -16 -17 -7 -28 15 l-11 22 0 -22 c-1 -13 -6
-23 -12 -23 -7 0 -9 11 -6 27 3 15 1 36 -4 45 -11 21 -3 24 15 6z m198 -33 c2
-31 -1 -45 -9 -45 -8 0 -13 15 -13 41 0 36 -2 40 -20 34 -11 -4 -20 -2 -20 4
0 6 13 11 29 11 27 0 29 -3 33 -45z m86 -2 c2 -26 -1 -43 -7 -43 -6 0 -11 18
-11 41 0 28 -4 39 -12 36 -7 -2 -13 -14 -12 -26 0 -11 -5 -21 -13 -21 -16 0
-17 32 -1 48 7 7 22 11 33 10 16 -2 21 -12 23 -45z m207 12 c0 -23 -5 -31 -22
-33 -20 -3 -23 1 -25 30 l-1 33 -4 -33 c-3 -18 -11 -36 -19 -39 -18 -7 -44 14
-44 36 0 29 23 42 70 39 43 -3 45 -5 45 -33z m75 27 c0 -5 -9 -17 -20 -27 -11
-10 -20 -25 -20 -33 0 -9 7 -13 20 -9 12 3 20 0 20 -8 0 -17 -50 -7 -57 12 -3
8 4 24 16 37 12 12 18 26 14 29 -3 4 1 7 10 7 10 0 17 -4 17 -8z m268 -49 c0
-28 -2 -33 -8 -18 -6 17 -3 55 5 55 2 0 3 -17 3 -37z m-1145 -50 c-13 -2 -33
-2 -45 0 -13 2 -3 4 22 4 25 0 35 -2 23 -4z m265 0 c-10 -2 -28 -2 -40 0 -13
2 -5 4 17 4 22 1 32 -1 23 -4z m1097 -82 c-4 -14 -14 -31 -23 -38 -16 -11 -15
-12 4 -13 12 0 24 -7 28 -15 3 -8 1 -15 -4 -15 -6 0 -10 5 -10 11 0 7 -14 10
-35 7 -19 -2 -35 0 -35 4 0 4 5 8 11 8 6 0 9 7 5 15 -3 8 2 21 10 30 14 13 14
15 0 15 -8 0 -17 4 -20 8 -2 4 13 8 35 7 37 0 39 -2 34 -24z m-1197 -3 c14
-30 21 -78 11 -78 -4 0 -9 14 -11 32 -4 46 -28 49 -28 4 0 -20 -4 -36 -10 -36
-14 0 -13 41 3 73 15 33 20 34 35 5z m160 0 c14 -30 21 -78 11 -78 -4 0 -9 14
-11 32 -3 35 -28 52 -28 19 0 -12 -4 -21 -10 -21 -13 0 -13 10 3 43 15 33 20
34 35 5z m440 0 c18 -38 21 -78 6 -78 -9 0 -14 12 -14 36 0 24 -4 34 -12 31
-7 -2 -12 -12 -12 -21 2 -16 -8 -21 -19 -10 -7 7 23 64 33 64 4 0 12 -10 18
-22z m-820 -24 c24 -38 28 -54 12 -54 -5 0 -10 9 -10 20 0 11 -4 20 -10 20 -5
0 -10 -9 -10 -20 0 -11 -4 -20 -8 -20 -5 0 -9 20 -9 45 0 25 3 45 6 45 3 -1
16 -17 29 -36z m107 27 c3 -5 1 -12 -4 -15 -5 -4 -11 0 -14 6 -2 7 -8 10 -12
6 -13 -12 4 -38 25 -38 11 0 20 -7 20 -15 0 -8 7 -15 15 -15 8 0 15 -4 15 -9
0 -4 -11 -6 -25 -3 -14 2 -25 11 -25 19 0 11 -8 14 -30 11 -16 -3 -30 -1 -30
4 0 4 5 8 11 8 5 0 8 4 5 9 -4 5 -3 16 0 25 7 17 39 22 49 7z m416 -23 c4 -16
3 -28 -2 -28 -5 0 -9 11 -9 25 0 16 -6 25 -15 25 -12 0 -14 -8 -9 -40 4 -24 3
-40 -3 -40 -6 0 -13 18 -17 41 -7 42 -32 51 -30 10 0 -11 -3 -21 -8 -21 -13 0
-9 48 5 54 6 3 27 4 46 3 29 -2 36 -7 42 -29z m65 18 c15 -16 16 -76 1 -76 -5
0 -7 12 -4 27 5 28 -15 59 -33 48 -5 -3 -10 -1 -10 4 0 16 29 13 46 -3z m372
-18 c2 -16 -1 -28 -7 -28 -6 0 -11 11 -11 25 0 16 -6 25 -15 25 -15 0 -14 -20
1 -68 2 -8 -2 -12 -8 -10 -7 3 -13 11 -14 19 -4 49 -34 75 -34 28 0 -10 -4
-19 -10 -19 -14 0 -12 34 2 48 7 7 30 12 53 10 35 -3 40 -6 43 -30z m67 18
c17 -17 15 -76 -3 -76 -8 0 -10 8 -6 25 7 27 -13 54 -35 47 -8 -3 -11 0 -7 7
10 15 35 14 51 -3z m220 -21 c0 -23 -5 -31 -22 -33 -20 -3 -23 1 -25 30 l-1
33 -4 -33 c-3 -18 -11 -36 -19 -39 -18 -7 -44 14 -44 36 0 29 23 42 70 39 43
-3 45 -5 45 -33z m75 27 c0 -5 -9 -17 -20 -27 -11 -10 -20 -25 -20 -33 0 -9 7
-13 20 -9 12 3 20 0 20 -8 0 -17 -50 -7 -57 12 -3 8 4 24 16 37 12 12 18 26
14 29 -3 4 1 7 10 7 10 0 17 -4 17 -8z m-622 -29 c-10 -2 -26 -2 -35 0 -10 3
-2 5 17 5 19 0 27 -2 18 -5z m0 -20 c-10 -2 -26 -2 -35 0 -10 3 -2 5 17 5 19
0 27 -2 18 -5z m856 -38 c-4 -8 -8 -15 -10 -15 -2 0 -4 7 -4 15 0 8 4 15 10
15 5 0 7 -7 4 -15z m-1246 -12 c-10 -2 -28 -2 -40 0 -13 2 -5 4 17 4 22 1 32
-1 23 -4z m148 -73 c8 0 14 -7 14 -15 0 -8 7 -15 15 -15 8 0 15 -4 15 -10 0
-5 -7 -7 -16 -3 -14 5 -16 1 -12 -20 3 -15 1 -27 -3 -27 -5 0 -9 12 -9 26 0
19 -4 25 -15 20 -8 -3 -15 -1 -15 4 0 6 7 10 15 10 8 0 15 5 15 10 0 6 -7 10
-15 10 -8 0 -15 8 -14 18 0 10 3 12 6 5 2 -7 11 -13 19 -13z m-381 -9 c3 -5
-4 -16 -16 -25 -13 -9 -19 -21 -16 -30 8 -21 34 -20 41 2 4 13 4 13 3 -3 -2
-14 -12 -21 -40 -26 -20 -3 -37 -2 -37 3 0 4 5 8 10 8 6 0 8 11 4 25 -9 38 32
75 51 46z m51 -8 c7 -10 14 -28 14 -40 0 -13 5 -23 10 -23 6 0 10 18 10 40 0
22 5 40 10 40 6 0 10 -18 10 -39 0 -31 -4 -41 -20 -46 -26 -8 -40 1 -40 26 0
11 -5 29 -10 40 -13 24 -2 25 16 2z m192 -19 c24 -38 28 -54 12 -54 -5 0 -10
9 -10 20 0 11 -4 20 -10 20 -5 0 -10 -9 -10 -20 0 -11 -4 -20 -8 -20 -5 0 -9
20 -9 45 0 25 3 45 6 45 3 -1 16 -17 29 -36z m92 26 c0 -5 -6 -7 -14 -4 -20 8
-31 -15 -13 -29 19 -16 29 -47 16 -47 -6 0 -13 9 -16 20 -3 11 -12 20 -19 20
-17 0 -18 22 -2 38 14 14 48 16 48 2z m657 -22 c-3 -8 -6 -5 -6 6 -1 11 2 17
5 13 3 -3 4 -12 1 -19z m-469 -5 c-10 -2 -26 -2 -35 0 -10 3 -2 5 17 5 19 0
27 -2 18 -5z m80 0 c-10 -2 -26 -2 -35 0 -10 3 -2 5 17 5 19 0 27 -2 18 -5z
m-80 -20 c-10 -2 -26 -2 -35 0 -10 3 -2 5 17 5 19 0 27 -2 18 -5z m80 0 c-10
-2 -26 -2 -35 0 -10 3 -2 5 17 5 19 0 27 -2 18 -5z m389 -35 c-3 -8 -6 -5 -6
6 -1 11 2 17 5 13 3 -3 4 -12 1 -19z m-861 -88 c8 0 14 -7 14 -15 0 -8 7 -15
15 -15 8 0 15 -4 15 -10 0 -5 -7 -7 -16 -3 -14 5 -16 2 -10 -20 4 -16 2 -27
-4 -27 -5 0 -10 12 -10 26 0 19 -4 25 -15 20 -8 -3 -15 -1 -15 4 0 6 7 10 15
10 8 0 15 5 15 10 0 6 -7 10 -15 10 -8 0 -15 8 -14 18 0 10 3 12 6 5 2 -7 11
-13 19 -13z m464 -7 c21 -18 29 -83 10 -83 -5 0 -10 16 -10 36 0 24 -4 34 -12
31 -7 -2 -13 -18 -13 -35 0 -18 -3 -32 -7 -32 -12 0 -10 68 2 75 6 4 8 11 5
16 -10 14 3 11 25 -8z m180 -50 c0 -18 -4 -33 -10 -33 -5 0 -10 16 -10 36 0
24 -4 34 -12 31 -7 -2 -12 -12 -12 -21 1 -9 -2 -16 -7 -16 -5 0 -9 9 -9 20 0
11 5 20 10 20 6 0 10 7 10 17 0 14 2 14 20 -2 12 -11 20 -31 20 -52z m-1022
39 c2 -7 -5 -16 -17 -19 -24 -6 -23 -5 -15 -27 8 -20 34 -21 34 -1 0 8 5 15
10 15 12 0 13 -11 2 -26 -9 -14 -82 -26 -82 -13 0 5 5 9 10 9 6 0 8 11 4 25
-10 42 40 77 54 37z m58 -22 c4 -22 10 -40 15 -40 12 0 23 46 15 65 -3 8 -1
15 5 15 6 0 9 -18 7 -42 -2 -36 -7 -44 -26 -46 -12 -2 -24 2 -26 10 -1 7 -8
28 -14 46 -8 26 -8 32 4 32 8 0 16 -15 20 -40z m182 4 c24 -38 28 -54 12 -54
-5 0 -10 9 -10 20 0 11 -4 20 -10 20 -5 0 -10 -9 -10 -20 0 -11 -4 -20 -8 -20
-5 0 -9 20 -9 45 0 25 3 45 6 45 3 -1 16 -17 29 -36z m92 27 c0 -5 -7 -8 -16
-7 -9 0 -19 -5 -21 -11 -3 -7 2 -13 10 -13 8 0 17 -11 19 -25 3 -14 1 -25 -3
-25 -5 0 -9 9 -9 20 0 13 -7 20 -20 20 -24 0 -26 13 -4 34 17 17 44 21 44 7z
m284 -18 c25 -32 39 -63 27 -63 -5 0 -11 10 -15 23 -5 18 -8 19 -15 7 -5 -8
-7 -18 -5 -22 3 -4 0 -8 -7 -8 -7 0 -9 10 -6 27 3 15 1 36 -4 45 -15 27 0 21
25 -9z m116 12 c0 -8 -4 -15 -10 -15 -5 0 -10 5 -10 11 0 5 -4 8 -10 4 -15 -9
0 -35 21 -35 11 0 19 -7 19 -16 0 -11 6 -15 20 -11 13 3 20 0 20 -10 0 -10 -6
-13 -16 -9 -9 3 -20 6 -25 6 -5 0 -9 7 -9 16 0 13 -8 15 -35 12 -19 -2 -35 0
-35 4 0 4 5 8 10 8 6 0 10 8 10 18 0 24 8 32 32 32 10 0 18 -7 18 -15z m418
-17 c2 -16 -1 -28 -7 -28 -6 0 -11 11 -11 25 0 16 -6 25 -15 25 -18 0 -18 -4
-6 -48 6 -20 6 -32 0 -32 -5 0 -9 6 -9 13 0 18 -24 67 -32 67 -5 0 -8 -11 -8
-25 0 -14 -4 -25 -10 -25 -14 0 -12 34 2 48 7 7 30 12 53 10 35 -3 40 -6 43
-30z m62 17 c18 -16 16 -75 -2 -75 -6 0 -7 11 -4 25 7 28 -11 54 -32 47 -6 -2
-12 1 -12 7 0 16 31 13 50 -4z m-692 -22 c-10 -2 -26 -2 -35 0 -10 3 -2 5 17
5 19 0 27 -2 18 -5z m0 -20 c-10 -2 -26 -2 -35 0 -10 3 -2 5 17 5 19 0 27 -2
18 -5z m766 -38 c-4 -8 -8 -15 -10 -15 -2 0 -4 7 -4 15 0 8 4 15 10 15 5 0 7
-7 4 -15z m-351 -12 c-13 -2 -33 -2 -45 0 -13 2 -3 4 22 4 25 0 35 -2 23 -4z
m-649 -168 c-4 -8 -8 -15 -10 -15 -2 0 -4 7 -4 15 0 8 4 15 10 15 5 0 7 -7 4
-15z m63 -117 c-3 -8 -6 -5 -6 6 -1 11 2 17 5 13 3 -3 4 -12 1 -19z m0 -60
c-3 -8 -6 -5 -6 6 -1 11 2 17 5 13 3 -3 4 -12 1 -19z m1223 -78 c0 -5 7 -10
15 -10 8 0 15 -7 15 -15 0 -8 7 -15 15 -15 8 0 15 -5 15 -11 0 -6 -7 -9 -15
-5 -11 4 -15 -1 -15 -19 0 -14 -4 -25 -10 -25 -5 0 -10 11 -10 25 0 18 -4 23
-15 19 -8 -4 -15 -1 -15 5 0 6 7 11 15 11 8 0 15 5 15 10 0 6 -7 10 -15 10 -8
0 -15 7 -15 15 0 8 5 15 10 15 6 0 10 -4 10 -10z m-1380 -17 c21 -18 29 -83
10 -83 -5 0 -10 16 -10 36 0 24 -4 34 -12 31 -7 -2 -13 -18 -13 -35 0 -18 -3
-32 -7 -32 -12 0 -10 68 2 75 6 4 8 11 5 16 -10 14 3 11 25 -8z m168 -5 c18
-38 21 -78 6 -78 -9 0 -14 12 -14 35 0 19 -4 35 -10 35 -5 0 -10 -9 -10 -20 0
-11 -4 -20 -10 -20 -5 0 -10 9 -10 20 0 11 5 20 10 20 6 0 10 7 10 15 0 22 15
18 28 -7z m-394 -15 c25 -32 39 -63 27 -63 -5 0 -11 10 -15 23 -5 18 -8 19
-15 7 -5 -8 -7 -18 -5 -22 3 -4 0 -8 -7 -8 -7 0 -9 10 -6 27 3 15 1 36 -4 45
-15 27 0 21 25 -9z m116 12 c0 -8 -5 -15 -11 -15 -5 0 -7 5 -4 10 3 6 1 10 -4
10 -21 0 -10 -31 14 -40 14 -5 25 -15 25 -21 0 -6 7 -9 15 -5 9 3 15 0 15 -8
0 -9 -8 -12 -25 -8 -14 2 -25 11 -25 19 0 12 -8 14 -35 10 -19 -3 -35 -2 -35
4 0 5 7 9 16 9 8 0 12 5 9 10 -4 6 -4 17 -1 25 7 20 46 19 46 0z m421 -18 c5
-20 4 -27 -4 -24 -7 2 -13 13 -15 25 -2 12 -10 22 -18 22 -16 0 -19 -16 -4
-25 13 -8 13 -55 1 -55 -5 0 -12 18 -16 41 -7 42 -28 49 -33 11 -4 -26 -22
-29 -22 -4 0 29 22 43 64 40 34 -3 41 -7 47 -31z m62 16 c18 -21 18 -73 -1
-73 -8 0 -10 8 -6 25 7 27 -13 54 -35 47 -8 -3 -11 0 -7 7 10 16 31 14 49 -6z
m187 -24 c0 -6 -7 -12 -15 -15 -8 -4 -15 -12 -15 -20 0 -8 -4 -14 -10 -14 -5
0 -10 5 -10 11 0 7 -8 18 -17 25 -17 12 -17 14 2 32 18 17 22 17 43 4 12 -8
22 -18 22 -23z m121 -6 c3 -24 2 -43 -2 -43 -4 0 -9 17 -11 37 -3 42 -28 59
-28 19 0 -14 -4 -26 -10 -26 -5 0 -10 12 -10 26 0 16 -5 24 -12 21 -7 -2 -13
-14 -12 -26 0 -11 -3 -21 -8 -21 -13 0 -9 48 5 54 6 3 28 4 47 3 33 -2 35 -4
41 -44z m89 32 c0 -9 -9 -19 -20 -23 -18 -7 -19 -10 -7 -26 14 -19 43 -14 32
5 -4 5 -1 9 5 9 6 0 10 -8 8 -17 -3 -18 -78 -38 -78 -21 0 4 4 8 9 8 4 0 6 11
3 25 -2 13 -2 31 2 40 7 20 46 20 46 0z m240 0 c0 -7 -7 -18 -17 -23 -10 -6
-14 -16 -10 -27 8 -18 34 -15 30 4 -2 6 2 11 8 11 6 0 9 -8 7 -17 -3 -18 -78
-38 -78 -21 0 4 4 8 9 8 4 0 6 11 3 25 -2 13 -2 31 2 40 7 19 46 20 46 0z m54
-1 c3 -9 6 -27 6 -41 0 -15 5 -23 13 -20 6 2 12 20 12 40 0 23 5 37 13 37 15
0 16 -44 2 -71 -11 -19 -45 -26 -53 -11 -2 4 -7 24 -11 45 -7 37 6 52 18 21z
m180 -11 c25 -32 39 -63 27 -63 -5 0 -11 10 -15 23 -5 18 -8 19 -15 7 -5 -8
-7 -18 -5 -22 3 -4 0 -8 -7 -8 -7 0 -9 10 -6 27 3 15 1 36 -4 45 -15 27 0 21
25 -9z m106 18 c0 -5 -8 -7 -19 -4 -10 3 -21 -2 -24 -10 -3 -9 2 -17 14 -20
19 -5 28 -47 9 -47 -5 0 -10 9 -10 20 0 11 -7 20 -15 20 -18 0 -20 36 -2 43
21 9 47 8 47 -2z m-462 -28 c-10 -2 -26 -2 -35 0 -10 3 -2 5 17 5 19 0 27 -2
18 -5z m0 -20 c-10 -2 -26 -2 -35 0 -10 3 -2 5 17 5 19 0 27 -2 18 -5z m594
-45 c-7 -7 -12 -8 -12 -2 0 6 3 14 7 17 3 4 9 5 12 2 2 -3 -1 -11 -7 -17z
m-1389 -5 c-13 -2 -33 -2 -45 0 -13 2 -3 4 22 4 25 0 35 -2 23 -4z m93 -73 c8
0 14 -7 14 -15 0 -8 7 -15 15 -15 8 0 15 -4 15 -10 0 -5 -7 -7 -16 -3 -14 5
-16 2 -10 -20 4 -16 2 -27 -4 -27 -5 0 -10 12 -10 26 0 19 -4 25 -15 20 -8 -3
-15 -1 -15 4 0 6 7 10 15 10 8 0 15 5 15 10 0 6 -7 10 -15 10 -8 0 -15 8 -14
18 0 10 3 12 6 5 2 -7 11 -13 19 -13z m464 -7 c21 -18 29 -83 10 -83 -5 0 -10
16 -10 36 0 24 -4 34 -12 31 -7 -2 -13 -18 -13 -35 0 -18 -3 -32 -7 -32 -12 0
-10 68 2 75 6 4 8 11 5 16 -10 14 3 11 25 -8z m180 -50 c0 -18 -4 -33 -10 -33
-5 0 -10 16 -10 36 0 24 -4 34 -12 31 -7 -2 -12 -12 -12 -21 1 -9 -2 -16 -7
-16 -5 0 -9 9 -9 20 0 11 5 20 10 20 6 0 10 7 10 17 0 14 2 14 20 -2 12 -11
20 -31 20 -52z m-1022 39 c2 -7 -5 -16 -17 -19 -24 -6 -23 -5 -15 -27 8 -20
34 -21 34 -1 0 8 5 15 10 15 12 0 13 -11 2 -26 -9 -14 -82 -26 -82 -13 0 5 5
9 10 9 6 0 8 11 4 25 -10 42 40 77 54 37z m58 -22 c4 -22 10 -40 15 -40 12 0
23 46 15 65 -3 8 -1 15 5 15 6 0 9 -18 7 -42 -2 -36 -7 -44 -26 -46 -12 -2
-24 2 -26 10 -1 7 -8 28 -14 46 -8 26 -8 32 4 32 8 0 16 -15 20 -40z m182 4
c24 -38 28 -54 12 -54 -5 0 -10 9 -10 20 0 11 -4 20 -10 20 -5 0 -10 -9 -10
-20 0 -11 -4 -20 -8 -20 -5 0 -9 20 -9 45 0 25 3 45 6 45 3 -1 16 -17 29 -36z
m92 27 c0 -5 -7 -8 -16 -7 -9 0 -19 -5 -21 -11 -3 -7 2 -13 10 -13 8 0 17 -11
19 -25 3 -14 1 -25 -3 -25 -5 0 -9 9 -9 20 0 13 -7 20 -20 20 -24 0 -26 13 -4
34 17 17 44 21 44 7z m284 -18 c25 -32 39 -63 27 -63 -5 0 -11 10 -15 23 -5
18 -8 19 -15 7 -5 -8 -7 -18 -5 -22 3 -4 0 -8 -7 -8 -7 0 -9 10 -6 27 3 15 1
36 -4 45 -15 27 0 21 25 -9z m116 12 c0 -8 -4 -15 -10 -15 -5 0 -10 5 -10 11
0 5 -4 8 -10 4 -15 -9 0 -35 21 -35 11 0 19 -7 19 -16 0 -11 6 -15 20 -11 13
3 20 0 20 -10 0 -10 -6 -13 -16 -9 -9 3 -20 6 -25 6 -5 0 -9 7 -9 16 0 13 -8
15 -35 12 -19 -2 -35 0 -35 4 0 4 5 8 10 8 6 0 10 8 10 18 0 24 8 32 32 32 10
0 18 -7 18 -15z m418 -17 c2 -16 -1 -28 -7 -28 -6 0 -11 11 -11 25 0 16 -6 25
-15 25 -18 0 -18 -4 -6 -48 6 -20 6 -32 0 -32 -5 0 -9 6 -9 13 0 18 -24 67
-32 67 -5 0 -8 -11 -8 -25 0 -14 -4 -25 -10 -25 -14 0 -12 34 2 48 7 7 30 12
53 10 35 -3 40 -6 43 -30z m62 17 c18 -16 16 -75 -2 -75 -6 0 -7 11 -4 25 7
28 -11 54 -32 47 -6 -2 -12 1 -12 7 0 16 31 13 50 -4z m-692 -22 c-10 -2 -26
-2 -35 0 -10 3 -2 5 17 5 19 0 27 -2 18 -5z m0 -20 c-10 -2 -26 -2 -35 0 -10
3 -2 5 17 5 19 0 27 -2 18 -5z m766 -38 c-4 -8 -8 -15 -10 -15 -2 0 -4 7 -4
15 0 8 4 15 10 15 5 0 7 -7 4 -15z m-351 -12 c-13 -2 -33 -2 -45 0 -13 2 -3 4
22 4 25 0 35 -2 23 -4z m-1228 -302 c3 -5 2 -12 -3 -15 -5 -3 -9 1 -9 9 0 17
3 19 12 6z m1825 -308 c0 -8 -7 -10 -17 -6 -16 6 -16 5 -4 -10 12 -15 12 -19
-5 -32 -18 -14 -18 -14 2 -15 12 0 24 -7 28 -15 3 -9 0 -15 -9 -15 -8 0 -15 5
-15 11 0 7 -12 10 -30 7 -16 -3 -30 -1 -30 4 0 4 4 8 10 8 5 0 7 7 4 15 -4 8
0 23 7 32 12 15 12 16 -3 10 -11 -4 -18 -2 -18 6 0 8 14 13 40 12 24 0 40 -5
40 -12z m-560 -10 c21 -18 29 -83 10 -83 -5 0 -10 16 -10 36 0 24 -4 34 -12
31 -7 -2 -13 -18 -13 -35 0 -19 -5 -32 -12 -32 -17 0 -17 38 0 73 14 32 12 31
37 10z m-1239 -40 c4 -32 2 -43 -8 -43 -9 0 -13 14 -13 40 0 22 -4 40 -10 40
-12 0 -24 -45 -16 -65 3 -8 1 -15 -4 -15 -11 0 -14 73 -3 84 4 4 16 6 28 4 15
-2 21 -13 26 -45z m130 0 c4 -32 2 -43 -8 -43 -9 0 -13 14 -13 40 0 22 -4 40
-10 40 -5 0 -10 -18 -10 -40 0 -22 -4 -40 -10 -40 -5 0 -10 18 -10 41 0 28 -4
39 -12 36 -7 -2 -13 -20 -13 -40 0 -23 -5 -37 -12 -37 -16 0 -17 44 -2 71 8
16 19 19 52 17 41 -3 42 -4 48 -45z m79 37 c19 -10 27 -80 9 -80 -5 0 -9 5 -9
10 0 6 -9 10 -20 10 -11 0 -20 -4 -20 -10 0 -5 -4 -10 -9 -10 -14 0 -7 70 9
80 19 12 18 12 40 0z m150 -11 c0 -11 -5 -30 -11 -41 -10 -18 -9 -20 5 -15 10
4 16 1 16 -7 0 -9 -8 -12 -24 -9 -14 3 -23 10 -20 17 3 7 -2 25 -10 40 -14 28
-14 28 -18 5 -4 -28 -35 -38 -44 -15 -13 33 3 46 56 46 44 0 50 -3 50 -21z
m110 7 c6 -8 18 -12 26 -9 10 4 12 0 8 -11 -3 -9 -10 -13 -16 -10 -5 3 -15 -1
-21 -9 -35 -46 -101 -21 -79 28 13 29 61 35 82 11z m191 -18 c5 -21 4 -28 -7
-28 -8 0 -14 10 -14 25 0 14 -4 25 -10 25 -12 0 -24 -45 -16 -65 3 -8 1 -15
-4 -15 -11 0 -14 73 -3 84 16 15 47 0 54 -26z m82 11 c17 -17 18 -21 5 -16
-13 5 -18 1 -18 -13 0 -19 -46 -58 -56 -47 -3 3 4 10 15 17 24 13 30 56 6 46
-8 -3 -15 -1 -15 4 0 6 7 10 16 10 8 0 12 5 9 10 -11 18 16 10 38 -11z m158
-27 c19 -44 7 -60 -13 -17 -12 26 -34 36 -24 10 3 -9 0 -15 -9 -15 -19 0 -19
24 0 40 8 7 12 17 8 22 -3 6 0 9 7 6 8 -2 22 -23 31 -46z m99 33 c0 -7 -7 -18
-17 -23 -10 -6 -14 -16 -10 -27 8 -18 34 -15 30 4 -2 6 2 11 8 11 6 0 9 -8 7
-17 -3 -18 -78 -38 -78 -21 0 4 4 8 9 8 4 0 6 11 3 25 -2 13 -2 31 2 40 7 19
46 20 46 0z m144 -12 c26 -34 39 -63 25 -63 -5 0 -14 10 -19 23 -8 19 -15 10
-11 -15 0 -5 -6 -8 -14 -8 -18 0 -18 1 -5 34 6 17 6 26 0 26 -6 0 -10 7 -10
15 0 22 9 19 34 -12z m184 -20 c2 -26 -1 -43 -7 -43 -6 0 -11 19 -11 41 0 36
-2 41 -20 36 -11 -3 -20 -1 -20 5 0 5 12 8 28 6 24 -3 27 -7 30 -45z m83 0 c4
-32 2 -43 -8 -43 -9 0 -13 14 -13 40 0 22 -4 40 -10 40 -5 0 -10 -11 -10 -25
0 -14 -4 -25 -10 -25 -11 0 -14 43 -3 54 4 4 16 6 28 4 15 -2 21 -13 26 -45z
m217 18 c4 -23 -11 -41 -35 -41 -8 0 -13 13 -13 30 0 17 -4 30 -10 30 -5 0
-10 -16 -10 -36 0 -31 -3 -35 -22 -32 -15 2 -24 11 -26 26 -6 38 16 53 67 50
40 -3 46 -6 49 -27z m62 16 c0 -7 -9 -20 -20 -30 -24 -20 -18 -37 11 -37 10 0
19 -4 19 -10 0 -12 -2 -12 -34 0 -29 11 -36 47 -11 56 8 4 15 12 15 20 0 8 5
14 10 14 6 0 10 -6 10 -13z m348 -34 c2 -26 -1 -43 -7 -43 -6 0 -11 18 -11 40
0 30 -4 40 -16 40 -13 0 -15 -8 -12 -40 2 -22 0 -40 -4 -40 -5 0 -8 18 -8 41
0 52 -24 48 -28 -4 -4 -46 -22 -49 -22 -4 0 44 17 59 65 55 39 -3 40 -4 43
-45z m82 37 c19 -10 27 -80 9 -80 -5 0 -9 5 -9 10 0 6 -9 10 -20 10 -11 0 -20
-4 -20 -10 0 -5 -3 -10 -7 -10 -15 0 -8 71 7 80 19 12 18 12 40 0z m150 -11
c0 -11 -5 -30 -11 -41 -10 -18 -9 -20 5 -15 10 4 16 1 16 -7 0 -9 -8 -12 -24
-9 -14 3 -23 10 -20 17 3 7 -2 25 -10 40 -14 28 -14 28 -18 5 -4 -28 -35 -38
-44 -15 -13 33 3 46 56 46 44 0 50 -3 50 -21z m-416 -74 c-4 -8 -8 -15 -10
-15 -2 0 -4 7 -4 15 0 8 4 15 10 15 5 0 7 -7 4 -15z m-1281 -12 c-13 -2 -33
-2 -45 0 -13 2 -3 4 22 4 25 0 35 -2 23 -4z m245 0 c-10 -2 -28 -2 -40 0 -13
2 -5 4 17 4 22 1 32 -1 23 -4z m265 0 c-13 -2 -33 -2 -45 0 -13 2 -3 4 22 4
25 0 35 -2 23 -4z m772 -82 c-4 -14 -14 -31 -23 -38 -16 -11 -15 -12 4 -13 12
0 24 -7 28 -15 3 -8 1 -15 -4 -15 -6 0 -10 5 -10 11 0 7 -14 10 -35 7 -19 -2
-35 0 -35 4 0 4 5 8 11 8 6 0 9 7 5 15 -3 8 2 21 10 30 14 13 14 15 0 15 -8 0
-17 4 -20 8 -2 4 13 8 35 7 37 0 39 -2 34 -24z m-1197 -3 c14 -30 21 -78 11
-78 -4 0 -9 14 -11 32 -4 46 -28 49 -28 4 0 -20 -4 -36 -10 -36 -14 0 -13 41
3 73 15 33 20 34 35 5z m160 0 c14 -30 21 -78 11 -78 -4 0 -9 14 -11 32 -3 35
-28 52 -28 19 0 -12 -4 -21 -10 -21 -13 0 -13 10 3 43 15 33 20 34 35 5z m440
0 c18 -38 21 -78 6 -78 -9 0 -14 12 -14 36 0 24 -4 34 -12 31 -7 -2 -12 -12
-12 -21 2 -16 -8 -21 -19 -10 -7 7 23 64 33 64 4 0 12 -10 18 -22z m-820 -24
c24 -38 28 -54 12 -54 -5 0 -10 9 -10 20 0 11 -4 20 -10 20 -5 0 -10 -9 -10
-20 0 -11 -4 -20 -8 -20 -5 0 -9 20 -9 45 0 25 3 45 6 45 3 -1 16 -17 29 -36z
m107 27 c3 -5 1 -12 -4 -15 -5 -4 -11 0 -14 6 -2 7 -8 10 -12 6 -13 -12 4 -38
25 -38 11 0 20 -7 20 -15 0 -8 7 -15 15 -15 8 0 15 -4 15 -9 0 -4 -11 -6 -25
-3 -14 2 -25 11 -25 19 0 11 -8 14 -30 11 -16 -3 -30 -1 -30 4 0 4 5 8 11 8 5
0 8 4 5 9 -4 5 -3 16 0 25 7 17 39 22 49 7z m416 -23 c4 -16 3 -28 -2 -28 -5
0 -9 11 -9 25 0 16 -6 25 -15 25 -12 0 -14 -8 -9 -40 4 -24 3 -40 -3 -40 -6 0
-13 18 -17 41 -7 42 -32 51 -30 10 0 -11 -3 -21 -8 -21 -13 0 -9 48 5 54 6 3
27 4 46 3 29 -2 36 -7 42 -29z m65 18 c15 -16 16 -76 1 -76 -5 0 -7 12 -4 27
5 28 -15 59 -33 48 -5 -3 -10 -1 -10 4 0 16 29 13 46 -3z m372 -18 c2 -16 -1
-28 -7 -28 -6 0 -11 11 -11 25 0 16 -6 25 -15 25 -15 0 -14 -20 1 -68 2 -8 -2
-12 -8 -10 -7 3 -13 11 -14 19 -4 49 -34 75 -34 28 0 -10 -4 -19 -10 -19 -14
0 -12 34 2 48 7 7 30 12 53 10 35 -3 40 -6 43 -30z m67 18 c17 -17 15 -76 -3
-76 -8 0 -10 8 -6 25 7 27 -13 54 -35 47 -8 -3 -11 0 -7 7 10 15 35 14 51 -3z
m220 -21 c0 -23 -5 -31 -22 -33 -20 -3 -23 1 -25 30 l-1 33 -4 -33 c-3 -18
-11 -36 -19 -39 -18 -7 -44 14 -44 36 0 29 23 42 70 39 43 -3 45 -5 45 -33z
m75 27 c0 -5 -9 -17 -20 -27 -11 -10 -20 -25 -20 -33 0 -9 7 -13 20 -9 12 3
20 0 20 -8 0 -17 -50 -7 -57 12 -3 8 4 24 16 37 12 12 18 26 14 29 -3 4 1 7
10 7 10 0 17 -4 17 -8z m-622 -29 c-10 -2 -26 -2 -35 0 -10 3 -2 5 17 5 19 0
27 -2 18 -5z m0 -20 c-10 -2 -26 -2 -35 0 -10 3 -2 5 17 5 19 0 27 -2 18 -5z
m856 -38 c-4 -8 -8 -15 -10 -15 -2 0 -4 7 -4 15 0 8 4 15 10 15 5 0 7 -7 4
-15z m-1246 -12 c-10 -2 -28 -2 -40 0 -13 2 -5 4 17 4 22 1 32 -1 23 -4z
m1482 -63 c0 -5 7 -10 15 -10 8 0 15 -7 15 -15 0 -8 7 -15 15 -15 8 0 15 -4
15 -10 0 -5 -7 -7 -16 -3 -14 5 -16 1 -12 -21 4 -17 1 -25 -6 -23 -6 2 -12 13
-14 25 -2 13 -8 19 -18 15 -8 -3 -14 0 -14 6 0 6 7 11 15 11 8 0 15 5 15 10 0
6 -4 10 -9 10 -5 0 -11 7 -15 15 -3 8 -1 15 4 15 6 0 10 -4 10 -10z m-800 -72
c0 -16 -4 -28 -10 -28 -5 0 -10 16 -10 36 0 24 -4 34 -12 31 -7 -2 -12 -12
-12 -21 1 -9 -2 -16 -7 -16 -5 0 -9 9 -9 20 0 11 5 20 10 20 6 0 10 8 10 18 1
30 40 -29 40 -60z m-992 26 c24 -38 28 -54 12 -54 -5 0 -10 9 -10 20 0 11 -4
20 -10 20 -5 0 -10 -9 -10 -20 0 -11 -4 -20 -8 -20 -5 0 -9 20 -9 45 0 25 3
45 6 45 3 -1 16 -17 29 -36z m62 -5 c0 -28 4 -39 13 -36 6 2 12 20 12 40 0 21
3 37 8 37 4 0 7 -9 7 -20 0 -11 7 -20 15 -20 8 0 15 -4 15 -10 0 -5 -6 -7 -14
-4 -8 3 -16 -3 -19 -16 -4 -16 -12 -21 -29 -18 -19 2 -24 11 -29 46 -4 31 -2
42 8 42 9 0 13 -14 13 -41z m116 27 c15 -16 16 -76 1 -76 -5 0 -7 12 -4 27 5
28 -15 59 -33 48 -5 -3 -10 -1 -10 4 0 16 29 13 46 -3z m171 -31 c15 -32 17
-45 8 -45 -7 0 -16 11 -19 25 -7 27 -26 34 -26 10 0 -8 -4 -15 -10 -15 -15 0
-12 26 5 40 8 7 12 16 9 21 -3 5 -1 9 3 9 5 0 18 -20 30 -45z m99 33 c4 -6 3
-13 -2 -15 -24 -9 -34 -21 -28 -36 8 -21 34 -22 34 -2 0 8 5 15 10 15 6 0 10
-3 10 -7 -1 -19 -18 -30 -55 -36 -32 -5 -37 -4 -25 6 8 7 14 22 12 35 -2 13
-1 30 2 38 7 17 32 18 42 2z m170 1 c3 -6 1 -16 -5 -22 -6 -6 -11 -21 -11 -32
0 -26 -58 -49 -105 -42 -26 3 -24 4 10 6 55 2 82 23 68 53 -5 13 -8 29 -6 36
6 15 39 16 49 1z m71 -34 c11 -25 17 -45 12 -45 -5 0 -15 11 -21 25 -17 38
-34 30 -29 -12 1 -7 -3 -13 -9 -13 -15 0 -12 32 5 56 8 12 11 24 8 28 -3 3 -2
6 3 6 6 0 19 -20 31 -45z m113 31 c6 -8 19 -12 27 -9 11 4 14 2 9 -5 -4 -7
-12 -12 -18 -12 -6 0 -16 -7 -22 -15 -6 -9 -25 -17 -41 -18 -26 -2 -30 2 -33
27 -2 16 2 32 10 37 20 13 54 11 68 -5z m314 -2 c9 -24 7 -44 -4 -44 -5 0 -10
11 -10 25 0 16 -6 25 -15 25 -18 0 -18 -4 -6 -48 6 -20 6 -32 0 -32 -5 0 -9 6
-9 13 0 17 -23 67 -31 67 -10 0 -20 -31 -13 -41 3 -5 0 -9 -5 -9 -15 0 -14 33
1 48 18 18 85 15 92 -4z m62 2 c17 -17 19 -76 3 -76 -7 0 -9 10 -5 25 7 28
-11 54 -32 47 -6 -2 -12 1 -12 7 0 16 29 14 46 -3z m249 5 c3 -5 -4 -16 -16
-25 -13 -9 -19 -21 -16 -30 8 -21 34 -20 41 2 4 13 4 13 3 -3 -2 -14 -12 -21
-40 -26 -20 -3 -37 -2 -37 3 0 4 5 8 10 8 6 0 8 11 4 25 -9 38 32 75 51 46z
m49 -7 c3 -9 6 -27 6 -40 0 -15 6 -24 16 -24 13 0 15 8 12 40 -2 28 0 40 9 40
17 0 17 -62 1 -78 -23 -23 -44 -13 -56 27 -7 21 -12 41 -12 45 0 13 18 5 24
-10z m191 -21 c26 -40 31 -53 16 -53 -5 0 -12 10 -16 23 l-8 22 -4 -22 c-2
-13 -9 -23 -15 -23 -6 0 -8 10 -4 25 4 14 2 34 -4 45 -19 36 8 22 35 -17z m95
27 c0 -5 -6 -7 -14 -4 -20 8 -31 -15 -13 -29 19 -16 29 -47 16 -47 -6 0 -13 9
-16 20 -3 11 -12 20 -19 20 -17 0 -18 22 -2 38 14 14 48 16 48 2z m9560 0 c0
-6 -28 -10 -65 -10 -37 0 -65 4 -65 10 0 6 28 10 65 10 37 0 65 -4 65 -10z
m-10022 -27 c-10 -2 -26 -2 -35 0 -10 3 -2 5 17 5 19 0 27 -2 18 -5z m0 -20
c-10 -2 -26 -2 -35 0 -10 3 -2 5 17 5 19 0 27 -2 18 -5z m593 -46 c-10 -9 -11
-8 -5 6 3 10 9 15 12 12 3 -3 0 -11 -7 -18z m-1623 -4 c-10 -2 -28 -2 -40 0
-13 2 -5 4 17 4 22 1 32 -1 23 -4z m635 0 c-13 -2 -33 -2 -45 0 -13 2 -3 4 22
4 25 0 35 -2 23 -4z m-882 -105 c4 -16 3 -28 -1 -28 -5 0 -10 10 -12 22 -6 41
-28 32 -28 -11 0 -23 -4 -41 -10 -41 -14 0 -12 64 2 78 19 19 41 10 49 -20z
m69 22 c0 -5 7 -10 15 -10 8 0 15 -5 15 -11 0 -6 -6 -9 -14 -6 -10 4 -16 -2
-18 -15 -3 -22 -48 -59 -48 -39 0 6 7 11 15 11 9 0 15 9 15 25 0 18 -4 23 -15
19 -8 -4 -15 -1 -15 5 0 6 7 11 15 11 8 0 15 5 15 10 0 6 5 10 10 10 6 0 10
-4 10 -10z m240 -11 c6 -11 9 -25 6 -32 -2 -7 -5 -4 -5 7 -1 16 -3 17 -18 5
-15 -11 -16 -11 -5 1 16 19 15 30 -3 30 -12 0 -15 -9 -13 -36 2 -29 5 -34 22
-30 13 3 16 2 8 -6 -19 -19 -42 -1 -42 35 0 51 29 66 50 26z m-122 -16 c-10
-2 -26 -2 -35 0 -10 3 -2 5 17 5 19 0 27 -2 18 -5z m0 -20 c-10 -2 -26 -2 -35
0 -10 3 -2 5 17 5 19 0 27 -2 18 -5z m173 -46 c-10 -9 -11 -8 -5 6 3 10 9 15
12 12 3 -3 0 -11 -7 -18z m-309 -107 c3 -16 1 -30 -4 -30 -4 0 -8 11 -8 25 0
16 -6 25 -16 25 -13 0 -15 -8 -12 -40 2 -28 0 -40 -9 -40 -17 0 -17 62 -1 78
22 22 45 14 50 -18z m68 20 c0 -5 7 -10 15 -10 8 0 15 -4 15 -10 0 -5 -7 -7
-15 -4 -11 5 -15 -1 -15 -20 0 -15 -8 -30 -19 -36 -25 -13 -31 -13 -31 0 0 6
7 10 15 10 9 0 15 9 15 25 0 19 -4 23 -17 18 -16 -5 -15 -3 2 15 22 23 35 27
35 12z m374 -6 c10 -25 7 -74 -4 -74 -5 0 -10 18 -10 40 0 30 -4 40 -16 40
-13 0 -15 -8 -12 -40 2 -28 0 -40 -9 -40 -8 0 -13 14 -13 40 0 22 -4 40 -10
40 -5 0 -10 -18 -10 -40 0 -22 -4 -40 -10 -40 -14 0 -12 64 2 78 18 18 85 15
92 -4z m86 6 c16 -10 23 -80 9 -80 -5 0 -9 5 -9 10 0 6 -9 10 -20 10 -11 0
-20 -4 -20 -10 0 -5 -4 -10 -9 -10 -16 0 -10 70 8 80 20 12 23 12 41 0z m144
-15 c-1 -11 -5 -29 -9 -39 -7 -16 -5 -18 8 -13 11 4 17 1 17 -7 0 -9 -9 -12
-26 -8 -16 3 -23 9 -20 18 3 7 -1 26 -9 41 -14 26 -15 27 -15 5 0 -29 -27 -40
-47 -19 -27 27 0 49 56 45 39 -3 46 -6 45 -23z m173 -7 c-3 -8 -6 -5 -6 6 -1
11 2 17 5 13 3 -3 4 -12 1 -19z m-649 -5 c-10 -2 -26 -2 -35 0 -10 3 -2 5 17
5 19 0 27 -2 18 -5z m80 0 c-10 -2 -26 -2 -35 0 -10 3 -2 5 17 5 19 0 27 -2
18 -5z m-80 -20 c-10 -2 -26 -2 -35 0 -10 3 -2 5 17 5 19 0 27 -2 18 -5z m80
0 c-10 -2 -26 -2 -35 0 -10 3 -2 5 17 5 19 0 27 -2 18 -5z m569 -35 c-3 -8 -6
-5 -6 6 -1 11 2 17 5 13 3 -3 4 -12 1 -19z m-684 -85 c-3 -7 -10 -10 -17 -6
-6 4 -5 -1 2 -10 8 -9 11 -21 7 -27 -10 -16 -25 -12 -19 5 4 8 1 15 -5 15 -12
0 -13 -6 -5 -37 4 -14 14 -23 25 -23 11 0 19 -5 19 -10 0 -6 -11 -8 -25 -4
-15 4 -32 1 -40 -6 -12 -10 -15 -9 -15 4 0 9 5 16 10 16 6 0 8 11 4 25 -4 15
-1 32 6 40 11 13 10 14 -4 9 -10 -4 -16 -1 -16 8 0 9 12 13 39 13 27 0 37 -3
34 -12z m1337 0 c0 -8 -7 -10 -17 -6 -15 6 -16 4 -5 -9 10 -13 9 -18 -4 -29
-14 -12 -14 -14 5 -21 21 -7 29 -28 11 -28 -5 0 -10 5 -10 11 0 8 -12 10 -35
6 -19 -3 -35 -2 -35 4 0 5 7 9 15 9 9 0 12 6 9 15 -4 8 0 23 7 32 12 15 12 16
-3 10 -11 -4 -18 -2 -18 6 0 7 16 12 40 12 26 1 40 -4 40 -12z m-566 -6 c15
-14 26 -87 15 -87 -4 0 -9 14 -11 32 -2 17 -9 33 -17 36 -10 3 -12 -4 -9 -32
3 -25 0 -36 -9 -36 -16 0 -17 38 0 73 14 31 14 31 31 14z m-1176 -15 c2 -7 -5
-16 -17 -19 -24 -6 -23 -5 -15 -27 8 -20 34 -21 34 -1 0 8 5 15 10 15 12 0 13
-11 2 -26 -9 -14 -82 -26 -82 -13 0 5 5 9 10 9 6 0 8 11 4 25 -10 42 40 77 54
37z m58 -22 c4 -22 10 -40 15 -40 12 0 23 46 15 65 -3 8 -1 15 5 15 6 0 9 -18
7 -42 -2 -36 -7 -44 -26 -46 -12 -2 -24 2 -26 10 -1 7 -8 28 -14 46 -8 26 -8
32 4 32 8 0 16 -15 20 -40z m261 24 c8 -20 -8 -48 -31 -52 -12 -3 -16 4 -16
27 0 17 -4 31 -10 31 -5 0 -10 -16 -10 -36 0 -31 -3 -35 -22 -32 -23 3 -35 35
-24 64 8 21 105 19 113 -2z m218 -19 c0 -23 -5 -31 -22 -33 -20 -3 -23 1 -24
30 l-2 33 -6 -35 c-5 -29 -10 -35 -31 -35 -18 0 -26 6 -28 23 -6 38 16 53 67
50 44 -3 46 -4 46 -33z m65 22 c0 -8 -9 -22 -20 -32 -11 -10 -17 -22 -14 -26
8 -14 24 -10 24 6 0 8 5 15 11 15 6 0 9 -8 7 -17 -5 -28 -52 -24 -56 5 -2 13
3 25 12 28 9 3 16 12 16 20 0 8 5 14 10 14 6 0 10 -6 10 -13z m88 -9 c2 -10
-1 -18 -7 -18 -6 0 -11 7 -11 15 0 8 -4 15 -10 15 -5 0 -10 -4 -10 -9 0 -6 5
-13 10 -16 13 -8 13 -55 1 -55 -5 0 -17 -3 -25 -6 -12 -5 -15 -2 -10 10 3 9
10 13 15 10 12 -7 11 17 0 35 -5 8 -7 20 -4 28 8 19 47 12 51 -9z m152 -26
c15 -32 16 -42 6 -42 -8 0 -17 11 -20 25 -7 27 -26 34 -26 10 0 -8 -4 -15 -10
-15 -15 0 -12 26 5 40 8 7 12 17 8 22 -3 6 0 9 6 7 7 -3 21 -23 31 -47z m100
33 c0 -7 -7 -18 -17 -23 -10 -6 -14 -16 -10 -26 8 -20 27 -21 27 -1 0 8 5 15
10 15 14 0 12 -30 -2 -34 -37 -12 -78 -14 -78 -6 0 6 7 10 15 10 11 0 12 5 6
23 -5 14 -5 30 0 40 12 21 49 23 49 2z m138 -7 c7 -13 19 -33 28 -45 15 -20
15 -23 1 -23 -9 0 -18 10 -20 23 l-4 22 -8 -22 c-10 -32 -29 -29 -21 2 4 14 2
34 -4 45 -8 15 -8 20 3 20 8 0 19 -10 25 -22z m190 -25 c2 -26 -1 -43 -7 -43
-6 0 -11 19 -11 41 0 36 -2 41 -20 36 -11 -3 -20 -1 -20 5 0 5 12 8 28 6 24
-3 27 -7 30 -45z m83 0 c4 -32 2 -43 -8 -43 -9 0 -13 14 -13 40 0 22 -4 40
-10 40 -5 0 -10 -11 -10 -25 0 -14 -4 -25 -10 -25 -11 0 -14 43 -3 54 4 4 16
6 28 4 15 -2 21 -13 26 -45z m56 18 c-8 -22 -8 -36 1 -55 6 -14 8 -26 3 -26
-5 0 -12 7 -15 16 -13 33 -3 94 14 94 5 0 3 -13 -3 -29z m160 13 c8 -20 -8
-48 -31 -52 -12 -3 -16 4 -16 27 0 17 -4 31 -10 31 -5 0 -10 -16 -10 -36 0
-31 -3 -35 -22 -32 -23 3 -35 35 -24 64 8 21 105 19 113 -2z m63 1 c0 -8 -9
-19 -20 -25 -11 -6 -20 -18 -20 -27 0 -10 6 -14 20 -10 12 3 20 0 20 -8 0 -16
-47 -8 -54 10 -5 13 33 75 47 75 4 0 7 -7 7 -15z m164 -1 c13 -33 3 -94 -15
-94 -5 0 -3 12 3 26 9 19 9 33 1 55 -6 16 -8 29 -3 29 4 0 11 -7 14 -16z m67
-87 c-10 -9 -11 -8 -5 6 3 10 9 15 12 12 3 -3 0 -11 -7 -18z m-1103 -4 c-10
-2 -28 -2 -40 0 -13 2 -5 4 17 4 22 1 32 -1 23 -4z m265 0 c-13 -2 -33 -2 -45
0 -13 2 -3 4 22 4 25 0 35 -2 23 -4z m-676 -105 c-3 -8 -6 -5 -6 6 -1 11 2 17
5 13 3 -3 4 -12 1 -19z m0 -60 c-3 -8 -6 -5 -6 6 -1 11 2 17 5 13 3 -3 4 -12
1 -19z m971 -100 c18 -38 21 -78 6 -78 -9 0 -14 12 -14 35 0 19 -4 35 -10 35
-5 0 -10 -9 -10 -20 0 -11 -4 -20 -10 -20 -5 0 -10 9 -10 20 0 11 5 20 10 20
6 0 10 7 10 15 0 22 15 18 28 -7z m-1059 -15 c-7 -18 -6 -36 0 -57 10 -29 10
-29 -4 -12 -18 23 -19 50 -5 77 15 28 21 23 9 -8z m75 0 c27 -34 39 -63 25
-63 -6 0 -13 9 -16 20 -3 11 -10 17 -15 14 -5 -3 -7 -12 -4 -20 3 -8 -1 -14
-9 -14 -18 0 -18 1 -5 34 6 17 6 26 0 26 -6 0 -10 7 -10 15 0 22 9 19 34 -12z
m66 -14 c0 -28 4 -39 13 -36 6 2 12 20 12 40 0 23 5 37 13 37 6 0 12 -9 12
-20 0 -11 5 -20 10 -20 6 0 10 -5 10 -12 0 -6 -3 -8 -7 -5 -3 4 -12 -2 -20
-13 -17 -24 -48 -26 -57 -4 -10 25 -7 74 4 74 6 0 10 -18 10 -41z m123 24 c18
-21 18 -73 -1 -73 -8 0 -10 8 -6 25 7 27 -13 54 -35 47 -8 -3 -11 0 -7 7 10
16 31 14 49 -6z m171 -35 c8 -22 11 -38 5 -38 -6 0 -15 13 -20 30 -6 16 -15
27 -21 24 -5 -3 -7 -12 -4 -20 3 -8 -1 -14 -9 -14 -20 0 -19 16 3 45 20 27 24
24 46 -27z m96 37 c0 -7 -7 -18 -17 -23 -10 -6 -14 -16 -10 -27 8 -18 34 -15
30 4 -2 6 2 11 8 11 6 0 9 -8 7 -17 -3 -18 -78 -38 -78 -21 0 4 4 8 9 8 4 0 6
11 3 25 -2 13 -2 31 2 40 7 19 46 20 46 0z m168 -8 c2 -9 -2 -17 -8 -17 -6 0
-9 4 -5 9 3 5 1 13 -5 16 -7 4 -8 -7 -4 -33 5 -34 3 -40 -15 -45 -14 -3 -21 0
-21 9 0 8 6 11 15 8 18 -7 19 0 4 27 -6 12 -8 27 -5 36 8 19 40 13 44 -10z
m76 -29 c8 -21 11 -38 5 -38 -5 0 -14 12 -19 26 -11 28 -35 23 -27 -7 3 -12 0
-19 -9 -19 -19 0 -18 26 3 61 19 32 25 30 47 -23z m113 36 c3 -8 12 -13 19
-10 8 3 14 -1 14 -10 0 -8 -5 -12 -11 -9 -5 4 -18 0 -28 -9 -10 -10 -31 -18
-47 -19 -23 -2 -30 2 -32 21 -2 13 2 30 8 38 17 19 69 18 77 -2z m314 -17 c5
-20 4 -27 -4 -24 -7 2 -13 13 -15 25 -2 12 -10 22 -18 22 -16 0 -19 -16 -4
-25 13 -8 13 -55 1 -55 -5 0 -12 18 -16 41 -7 42 -28 49 -33 11 -4 -26 -22
-29 -22 -4 0 29 22 43 64 40 34 -3 41 -7 47 -31z m62 16 c18 -21 18 -73 -1
-73 -8 0 -10 8 -6 25 7 27 -13 54 -35 47 -8 -3 -11 0 -7 7 10 16 31 14 49 -6z
m104 -30 c-3 -10 -5 -2 -5 17 0 19 2 27 5 18 2 -10 2 -26 0 -35z m684 15 c5
-21 4 -28 -7 -28 -8 0 -14 10 -14 26 0 16 -5 24 -12 21 -7 -2 -13 -20 -13 -40
0 -21 -3 -37 -7 -37 -10 0 -10 74 -1 84 16 15 47 0 54 -26z m59 22 c0 -5 7
-10 15 -10 8 0 15 -4 15 -10 0 -5 -7 -7 -15 -4 -11 5 -15 -1 -15 -20 0 -23
-34 -55 -47 -43 -2 3 5 10 16 17 24 13 30 56 6 46 -8 -3 -15 -1 -15 4 0 6 7
10 16 10 8 0 12 5 9 10 -3 6 -1 10 4 10 6 0 11 -4 11 -10z m243 -72 c7 -4 -1
-7 -18 -7 -16 0 -24 3 -17 6 6 2 13 23 14 46 l1 42 4 -40 c3 -22 10 -43 16
-47z m94 35 c-3 -10 -5 -2 -5 17 0 19 2 27 5 18 2 -10 2 -26 0 -35z m264 0 c3
-24 2 -43 -2 -43 -4 0 -9 17 -11 37 -4 52 -28 56 -28 4 0 -23 -4 -41 -10 -41
-5 0 -10 18 -10 40 0 22 -4 40 -10 40 -12 0 -24 -45 -16 -65 3 -8 1 -15 -4
-15 -15 0 -12 77 3 84 6 3 28 4 47 3 33 -2 35 -4 41 -44z m88 31 c16 -11 19
-20 12 -27 -7 -7 -7 -16 0 -29 7 -14 6 -18 -6 -18 -8 0 -15 5 -15 10 0 14 -37
12 -44 -2 -4 -7 -4 -3 -2 9 2 13 0 26 -6 29 -5 3 -2 14 8 25 21 23 24 23 53 3z
m144 10 c3 -4 0 -21 -7 -39 -13 -31 -13 -33 7 -39 12 -3 19 -7 16 -10 -3 -3
-15 -3 -28 1 -16 4 -21 11 -18 24 3 10 -1 20 -9 23 -8 3 -14 13 -15 23 -1 12
-3 9 -8 -7 -8 -29 -38 -39 -47 -16 -12 33 3 46 54 46 27 0 51 -3 55 -6z m67
-49 c0 -16 -4 -35 -8 -42 -4 -6 -7 13 -7 42 0 29 3 48 7 42 4 -7 8 -25 8 -42z
m111 28 c-4 -16 -4 -41 0 -57 9 -32 2 -29 -15 6 -9 18 -9 29 2 51 7 15 15 27
17 27 2 0 0 -12 -4 -27z m-881 -13 c4 -3 2 -11 -6 -18 -8 -7 -14 -8 -14 -2 0
5 -8 11 -17 11 -17 1 -17 2 0 6 9 2 17 12 18 21 0 14 2 14 6 2 3 -8 9 -17 13
-20z m-782 3 c-10 -2 -26 -2 -35 0 -10 3 -2 5 17 5 19 0 27 -2 18 -5z m1080 0
c-10 -2 -26 -2 -35 0 -10 3 -2 5 17 5 19 0 27 -2 18 -5z m-1080 -20 c-10 -2
-26 -2 -35 0 -10 3 -2 5 17 5 19 0 27 -2 18 -5z m1080 0 c-10 -2 -26 -2 -35 0
-10 3 -2 5 17 5 19 0 27 -2 18 -5z m-2185 -50 c-13 -2 -33 -2 -45 0 -13 2 -3
4 22 4 25 0 35 -2 23 -4z m260 0 c-13 -2 -33 -2 -45 0 -13 2 -3 4 22 4 25 0
35 -2 23 -4z m370 0 c-13 -2 -33 -2 -45 0 -13 2 -3 4 22 4 25 0 35 -2 23 -4z
m-1112 -105 c4 -16 3 -28 -1 -28 -5 0 -10 10 -12 22 -6 41 -28 32 -28 -11 0
-23 -4 -41 -10 -41 -14 0 -12 64 2 78 19 19 41 10 49 -20z m69 22 c0 -5 7 -10
15 -10 8 0 15 -5 15 -11 0 -6 -6 -9 -14 -6 -10 4 -16 -2 -18 -15 -3 -22 -48
-59 -48 -39 0 6 7 11 15 11 9 0 15 9 15 25 0 18 -4 23 -15 19 -8 -4 -15 -1
-15 5 0 6 7 11 15 11 8 0 15 5 15 10 0 6 5 10 10 10 6 0 10 -4 10 -10z m251
-23 c5 -20 4 -27 -4 -24 -7 2 -13 13 -15 25 -6 38 -22 24 -22 -18 0 -22 -4
-40 -10 -40 -15 0 -12 77 3 83 24 11 41 2 48 -26z m69 23 c0 -5 7 -10 15 -10
8 0 15 -5 15 -11 0 -6 -6 -9 -14 -6 -10 4 -16 -2 -18 -15 -3 -22 -48 -59 -48
-39 0 6 7 11 15 11 9 0 15 10 15 26 0 19 -4 25 -15 20 -8 -3 -15 -1 -15 4 0 6
7 10 15 10 8 0 15 5 15 10 0 6 5 10 10 10 6 0 10 -4 10 -10z m233 -72 c8 -5 5
-8 -8 -8 -18 0 -20 5 -15 48 l5 47 3 -40 c2 -22 9 -43 15 -47z m-113 42 c4 -3
2 -11 -6 -18 -8 -7 -14 -8 -14 -2 0 5 -8 11 -17 11 -17 1 -17 2 0 6 9 2 17 12
18 21 0 14 2 14 6 2 3 -8 9 -17 13 -20z m-322 3 c-10 -2 -26 -2 -35 0 -10 3
-2 5 17 5 19 0 27 -2 18 -5z m0 -20 c-10 -2 -26 -2 -35 0 -10 3 -2 5 17 5 19
0 27 -2 18 -5z m494 -45 c-7 -7 -12 -8 -12 -2 0 6 3 14 7 17 3 4 9 5 12 2 2
-3 -1 -11 -7 -17z m288 -140 c0 -16 -4 -28 -10 -28 -5 0 -10 16 -10 36 0 24
-4 34 -12 31 -7 -2 -12 -12 -12 -21 1 -9 -2 -16 -7 -16 -5 0 -9 9 -9 20 0 11
5 20 10 20 6 0 10 8 10 18 1 30 40 -29 40 -60z m1388 50 c18 -38 21 -78 6 -78
-9 0 -14 12 -14 35 0 19 -4 35 -10 35 -5 0 -10 -9 -10 -20 0 -11 -4 -20 -10
-20 -5 0 -10 9 -10 20 0 11 5 20 10 20 6 0 10 7 10 15 0 22 15 18 28 -7z
m-2380 -24 c24 -38 28 -54 12 -54 -5 0 -10 9 -10 20 0 11 -4 20 -10 20 -5 0
-10 -9 -10 -20 0 -11 -4 -20 -8 -20 -5 0 -9 20 -9 45 0 25 3 45 6 45 3 -1 16
-17 29 -36z m62 -5 c0 -28 4 -39 13 -36 6 2 12 20 12 40 0 21 3 37 8 37 4 0 7
-9 7 -20 0 -11 7 -20 15 -20 8 0 15 -4 15 -10 0 -5 -6 -7 -14 -4 -8 3 -16 -3
-19 -16 -4 -16 -12 -21 -29 -18 -19 2 -24 11 -29 46 -4 31 -2 42 8 42 9 0 13
-14 13 -41z m116 27 c17 -17 19 -76 3 -76 -7 0 -9 10 -5 25 7 28 -11 54 -32
47 -6 -2 -12 1 -12 7 0 16 29 14 46 -3z m171 -31 c15 -32 17 -45 8 -45 -7 0
-16 11 -19 25 -7 27 -26 34 -26 10 0 -8 -4 -15 -10 -15 -15 0 -12 26 5 40 8 7
12 16 9 21 -3 5 -1 9 3 9 5 0 18 -20 30 -45z m99 33 c4 -6 3 -13 -2 -15 -24
-9 -34 -21 -28 -36 8 -21 34 -22 34 -2 0 8 5 15 10 15 6 0 10 -3 10 -7 -1 -19
-18 -30 -55 -36 -32 -5 -37 -4 -25 6 8 7 14 22 12 35 -2 13 -1 30 2 38 7 17
32 18 42 2z m170 1 c3 -6 1 -16 -5 -22 -6 -6 -11 -21 -11 -32 0 -26 -58 -49
-105 -42 -26 3 -24 4 10 6 55 2 82 23 68 53 -5 13 -8 29 -6 36 6 15 39 16 49
1z m71 -34 c11 -25 17 -45 12 -45 -5 0 -15 11 -21 25 -17 38 -34 30 -29 -12 1
-7 -3 -13 -9 -13 -15 0 -12 32 5 56 8 12 11 24 8 28 -3 3 -2 6 3 6 6 0 19 -20
31 -45z m113 31 c6 -8 19 -12 27 -9 11 4 14 2 9 -5 -4 -7 -12 -12 -18 -12 -6
0 -16 -7 -22 -15 -6 -9 -25 -17 -41 -18 -26 -2 -30 2 -33 27 -2 16 2 32 10 37
20 13 54 11 68 -5z m318 -20 c2 -18 0 -26 -7 -21 -6 3 -11 15 -11 26 0 10 -7
19 -15 19 -18 0 -18 -4 -6 -48 5 -17 6 -32 2 -32 -5 0 -11 18 -15 41 -7 43
-28 50 -34 11 -4 -26 -22 -29 -22 -4 0 29 22 43 65 40 36 -3 40 -6 43 -32z
m63 17 c18 -20 18 -73 1 -73 -8 0 -10 8 -6 25 7 27 -13 54 -35 47 -8 -3 -11 0
-7 7 10 16 31 14 47 -6z m213 -10 c27 -34 39 -63 25 -63 -6 0 -13 9 -16 20 -3
11 -10 17 -15 14 -5 -3 -7 -12 -4 -20 3 -8 -1 -14 -9 -14 -18 0 -18 1 -5 34 6
17 6 26 0 26 -6 0 -10 7 -10 15 0 22 9 19 34 -12z m66 -14 c0 -28 4 -39 13
-36 6 2 12 20 12 40 0 23 5 37 13 37 6 0 12 -9 12 -20 0 -11 5 -20 10 -20 6 0
10 -5 10 -12 0 -6 -3 -8 -7 -5 -3 4 -12 -2 -20 -13 -17 -24 -48 -26 -57 -4
-10 25 -7 74 4 74 6 0 10 -18 10 -41z m123 24 c18 -21 18 -73 -1 -73 -8 0 -10
8 -6 25 7 27 -13 54 -35 47 -8 -3 -11 0 -7 7 10 16 31 14 49 -6z m171 -35 c8
-22 11 -38 5 -38 -6 0 -15 13 -20 30 -6 16 -15 27 -21 24 -5 -3 -7 -12 -4 -20
3 -8 -1 -14 -9 -14 -20 0 -19 16 3 45 20 27 24 24 46 -27z m96 37 c0 -7 -7
-18 -17 -23 -10 -6 -14 -16 -10 -27 8 -18 34 -15 30 4 -2 6 2 11 8 11 6 0 9
-8 7 -17 -3 -18 -78 -38 -78 -21 0 4 4 8 9 8 4 0 6 11 3 25 -2 13 -2 31 2 40
7 19 46 20 46 0z m168 -8 c2 -9 -2 -17 -8 -17 -6 0 -9 4 -5 9 3 5 1 13 -5 16
-7 4 -8 -7 -4 -33 5 -34 3 -40 -15 -45 -14 -3 -21 0 -21 9 0 8 6 11 15 8 18
-7 19 0 4 27 -6 12 -8 27 -5 36 8 19 40 13 44 -10z m76 -29 c8 -21 11 -38 5
-38 -5 0 -14 12 -19 26 -11 28 -35 23 -27 -7 3 -12 0 -19 -9 -19 -19 0 -18 26
3 61 19 32 25 30 47 -23z m113 36 c3 -8 12 -13 19 -10 8 3 14 -1 14 -10 0 -8
-5 -12 -11 -9 -5 4 -18 0 -28 -9 -10 -10 -31 -18 -47 -19 -23 -2 -30 2 -32 21
-2 13 2 30 8 38 17 19 69 18 77 -2z m314 -17 c5 -20 4 -27 -4 -24 -7 2 -13 13
-15 25 -2 12 -10 22 -18 22 -16 0 -19 -16 -4 -25 13 -8 13 -55 1 -55 -5 0 -12
18 -16 41 -7 42 -28 49 -33 11 -4 -26 -22 -29 -22 -4 0 29 22 43 64 40 34 -3
41 -7 47 -31z m65 19 c8 -8 13 -29 12 -45 -3 -37 -18 -41 -18 -5 0 26 -23 58
-34 47 -3 -4 -6 -1 -6 5 0 17 29 15 46 -2z m167 -7 c21 -19 21 -21 5 -33 -10
-7 -18 -18 -18 -25 0 -6 -4 -11 -10 -11 -5 0 -10 5 -10 11 0 7 -8 18 -17 25
-17 12 -17 14 2 33 25 25 22 25 48 0z m138 -26 c3 -24 2 -43 -2 -43 -4 0 -9
17 -11 37 -3 42 -28 59 -28 19 0 -14 -4 -26 -10 -26 -5 0 -10 11 -10 25 0 14
-4 25 -9 25 -12 0 -23 -29 -15 -41 3 -5 0 -9 -5 -9 -15 0 -14 47 2 54 6 3 28
4 47 3 33 -2 35 -4 41 -44z m89 32 c0 -7 -7 -18 -17 -23 -10 -6 -14 -16 -10
-27 8 -18 34 -15 30 4 -2 6 2 11 8 11 6 0 9 -8 7 -17 -3 -18 -78 -38 -78 -21
0 4 4 8 9 8 4 0 6 11 3 25 -2 13 -2 31 2 40 7 19 46 20 46 0z m-1682 -22 c-10
-2 -26 -2 -35 0 -10 3 -2 5 17 5 19 0 27 -2 18 -5z m0 -20 c-10 -2 -26 -2 -35
0 -10 3 -2 5 17 5 19 0 27 -2 18 -5z m1743 -46 c-10 -9 -11 -8 -5 6 3 10 9 15
12 12 3 -3 0 -11 -7 -18z m-2773 -4 c-10 -2 -28 -2 -40 0 -13 2 -5 4 17 4 22
1 32 -1 23 -4z m635 0 c-13 -2 -33 -2 -45 0 -13 2 -3 4 22 4 25 0 35 -2 23 -4z
m770 0 c-13 -2 -33 -2 -45 0 -13 2 -3 4 22 4 25 0 35 -2 23 -4z m265 0 c-10
-2 -28 -2 -40 0 -13 2 -5 4 17 4 22 1 32 -1 23 -4z m365 0 c-13 -2 -33 -2 -45
0 -13 2 -3 4 22 4 25 0 35 -2 23 -4z m-2444 -99 c2 -10 8 -22 15 -26 8 -6 8
-8 -1 -8 -6 0 -13 -10 -15 -22 -2 -12 -10 -23 -18 -25 -12 -4 -12 -3 -1 5 7 5
13 26 13 47 0 21 -6 42 -13 47 -11 8 -11 9 1 5 8 -2 17 -12 19 -23z m1381
-211 c0 -18 -4 -33 -10 -33 -5 0 -10 16 -10 36 0 24 -4 34 -12 31 -7 -2 -12
-12 -12 -21 1 -9 -2 -16 -7 -16 -5 0 -9 9 -9 20 0 11 5 20 10 20 6 0 10 7 10
17 0 14 2 14 20 -2 12 -11 20 -31 20 -52z m-1075 3 c0 -30 -3 -49 -7 -43 -12
19 -7 97 6 97 0 0 1 -24 1 -54z m73 32 c7 -13 19 -33 28 -45 15 -20 15 -23 1
-23 -9 0 -18 10 -20 23 l-4 22 -8 -22 c-12 -37 -22 -27 -22 22 0 50 8 57 25
23z m72 -18 c0 -22 5 -40 10 -40 6 0 10 18 10 40 0 22 5 40 10 40 6 0 10 -9
10 -20 0 -11 7 -20 15 -20 8 0 15 -5 15 -11 0 -6 -6 -9 -14 -6 -8 3 -16 -2
-19 -14 -4 -15 -12 -20 -29 -17 -19 2 -24 11 -29 46 -4 31 -2 42 8 42 9 0 13
-14 13 -40z m116 26 c17 -17 19 -76 3 -76 -7 0 -9 11 -6 27 5 29 -10 52 -31
45 -6 -2 -12 1 -12 7 0 16 29 14 46 -3z m162 -13 c5 -16 13 -36 17 -45 4 -11
3 -18 -4 -18 -6 0 -13 11 -17 25 -6 24 -32 30 -26 6 1 -6 -2 -11 -8 -11 -5 0
-10 9 -10 20 0 11 5 20 10 20 6 0 10 7 10 15 0 25 17 17 28 -12z m110 9 c2 -7
-5 -16 -17 -19 -24 -6 -23 -5 -15 -27 8 -20 34 -21 34 -1 0 8 5 15 10 15 12 0
13 -11 2 -26 -9 -14 -82 -26 -82 -13 0 5 5 9 10 9 6 0 8 11 4 25 -10 42 40 77
54 37z m168 7 c3 -6 1 -16 -5 -22 -6 -6 -11 -21 -11 -32 0 -26 -58 -49 -105
-42 -24 3 -21 4 13 6 30 1 42 5 42 16 0 9 6 12 15 9 18 -7 20 17 4 33 -7 7 -9
19 -6 27 7 18 42 21 53 5z m74 -37 c10 -23 15 -42 9 -42 -5 0 -15 11 -21 25
-6 14 -16 25 -21 25 -5 0 -7 -11 -5 -25 4 -17 1 -25 -8 -25 -18 0 -18 30 1 56
8 12 11 25 7 29 -4 4 -1 6 6 4 7 -3 22 -23 32 -47z m106 33 c4 -10 13 -13 25
-10 14 5 17 2 13 -9 -3 -9 -10 -13 -16 -10 -5 3 -15 -1 -21 -9 -19 -24 -61
-31 -77 -12 -22 26 2 65 40 65 18 0 33 -6 36 -15z m322 -17 c2 -16 -1 -28 -7
-28 -6 0 -11 11 -11 25 0 16 -6 25 -15 25 -18 0 -18 -4 -6 -48 6 -20 6 -32 0
-32 -5 0 -9 6 -9 13 0 18 -24 67 -32 67 -5 0 -8 -11 -8 -25 0 -14 -4 -25 -10
-25 -14 0 -12 34 2 48 7 7 30 12 53 10 35 -3 40 -6 43 -30z m62 17 c18 -16 16
-75 -2 -75 -6 0 -7 11 -4 25 7 28 -11 54 -32 47 -6 -2 -12 1 -12 7 0 16 31 13
50 -4z m110 -9 c0 -14 -4 -28 -10 -31 -6 -4 -10 7 -10 24 0 17 5 31 10 31 6 0
10 -11 10 -24z m370 -31 c0 -16 -4 -35 -8 -42 -4 -6 -7 13 -7 42 0 29 3 48 7
42 4 -7 8 -25 8 -42z m111 28 c-4 -16 -4 -41 0 -57 9 -32 2 -29 -15 6 -9 18
-9 29 2 51 7 15 15 27 17 27 2 0 0 -12 -4 -27z m-393 -10 c-10 -2 -26 -2 -35
0 -10 3 -2 5 17 5 19 0 27 -2 18 -5z m0 -20 c-10 -2 -26 -2 -35 0 -10 3 -2 5
17 5 19 0 27 -2 18 -5z m-1115 -50 c-13 -2 -33 -2 -45 0 -13 2 -3 4 22 4 25 0
35 -2 23 -4z m640 0 c-13 -2 -33 -2 -45 0 -13 2 -3 4 22 4 25 0 35 -2 23 -4z
m-935 -85 c14 -30 21 -78 11 -78 -4 0 -9 14 -11 32 -4 46 -28 49 -28 4 0 -20
-4 -36 -10 -36 -14 0 -13 41 3 73 15 33 20 34 35 5z m182 -52 c0 -14 -4 -26
-10 -26 -5 0 -10 16 -10 36 0 24 -4 34 -12 31 -7 -2 -12 -12 -12 -21 1 -9 -4
-16 -12 -16 -19 0 -18 16 3 44 l18 23 17 -23 c10 -12 18 -34 18 -48z m1778 52
c14 -30 21 -78 11 -78 -4 0 -9 14 -11 32 -3 35 -28 52 -28 19 0 -12 -4 -21
-10 -21 -13 0 -13 10 3 43 15 33 20 34 35 5z m-2190 -10 c7 -13 19 -33 28 -45
15 -20 15 -23 1 -23 -9 0 -18 10 -20 23 l-4 22 -8 -22 c-12 -37 -22 -27 -22
22 0 50 8 57 25 23z m117 11 c4 -6 4 -13 0 -17 -3 -3 -10 0 -15 8 -11 19 -22
8 -14 -14 3 -9 15 -16 25 -16 11 0 19 -7 19 -16 0 -10 6 -14 14 -11 8 3 17 -1
20 -9 5 -12 1 -14 -17 -9 -12 4 -27 14 -34 22 -7 10 -22 14 -38 11 -14 -3 -25
-1 -25 3 0 5 5 9 10 9 6 0 10 6 9 13 -3 27 2 37 20 37 11 0 23 -5 26 -11z
m419 -5 c9 -24 7 -44 -4 -44 -5 0 -10 11 -10 25 0 16 -6 25 -15 25 -18 0 -18
-4 -6 -48 7 -24 7 -32 -3 -32 -8 0 -16 17 -20 40 -3 22 -10 40 -15 40 -12 0
-23 -29 -15 -41 3 -5 0 -9 -5 -9 -15 0 -14 47 2 53 29 12 85 7 91 -9z m62 2
c17 -17 19 -76 3 -76 -7 0 -9 11 -6 27 5 29 -10 52 -31 45 -6 -2 -12 1 -12 7
0 16 29 14 46 -3z m167 -7 c21 -20 21 -21 3 -34 -10 -8 -15 -18 -11 -24 12
-20 -10 -11 -34 15 -23 24 -23 25 -5 44 24 24 21 24 47 -1z m141 5 c10 -25 7
-74 -4 -74 -5 0 -10 18 -10 40 0 30 -4 40 -16 40 -12 0 -15 -7 -12 -25 3 -14
1 -25 -3 -25 -5 0 -9 12 -9 26 0 31 -23 28 -28 -4 -4 -26 -22 -29 -22 -4 0 28
21 42 61 42 24 0 39 -5 43 -16z m93 -1 c2 -6 -5 -14 -17 -18 -13 -4 -20 -13
-18 -23 5 -23 35 -27 42 -5 4 15 5 15 3 -2 -2 -14 -12 -21 -40 -26 -20 -3 -37
-2 -37 3 0 4 5 8 10 8 6 0 8 11 4 25 -4 15 -1 32 6 41 15 17 41 15 47 -3z
m207 -10 c25 -32 39 -63 27 -63 -5 0 -11 10 -15 23 -5 18 -8 19 -15 7 -5 -8
-7 -18 -5 -22 3 -4 0 -8 -7 -8 -7 0 -9 10 -6 27 3 15 1 36 -4 45 -15 27 0 21
25 -9z m66 -14 c0 -28 4 -39 13 -36 6 2 12 20 12 40 0 23 5 37 13 37 6 0 12
-9 12 -20 0 -11 5 -20 10 -20 6 0 10 -5 10 -12 0 -6 -3 -8 -7 -5 -3 4 -12 -2
-20 -13 -17 -24 -48 -26 -57 -4 -10 25 -7 74 4 74 6 0 10 -18 10 -41z m123 24
c18 -21 18 -73 -1 -73 -8 0 -10 8 -6 25 7 27 -13 54 -35 47 -8 -3 -11 0 -7 7
10 16 31 14 49 -6z m171 -35 c8 -22 11 -38 5 -38 -6 0 -15 13 -20 30 -6 16
-15 27 -21 24 -5 -3 -7 -12 -4 -20 3 -8 -1 -14 -9 -14 -20 0 -19 16 3 45 20
27 24 24 46 -27z m96 37 c0 -7 -7 -18 -17 -23 -10 -6 -14 -16 -10 -27 8 -18
34 -15 30 4 -2 6 2 11 8 11 6 0 9 -8 7 -17 -3 -18 -78 -38 -78 -21 0 4 4 8 9
8 4 0 6 11 3 25 -2 13 -2 31 2 40 7 19 46 20 46 0z m168 -8 c2 -9 -2 -17 -8
-17 -6 0 -9 4 -5 9 3 5 1 13 -5 16 -7 4 -8 -7 -4 -33 5 -34 3 -40 -15 -45 -14
-3 -21 0 -21 9 0 8 6 11 15 8 18 -7 19 0 4 27 -6 12 -8 27 -5 36 8 19 40 13
44 -10z m74 -22 c18 -48 9 -63 -10 -19 -13 28 -37 23 -29 -7 5 -20 -7 -26 -18
-10 -5 10 25 80 35 81 3 0 13 -20 22 -45z m115 29 c3 -8 12 -13 19 -10 8 3 14
-1 14 -10 0 -8 -5 -12 -11 -9 -6 4 -16 0 -22 -8 -16 -20 -58 -29 -74 -15 -16
13 -17 40 -1 56 17 17 67 15 75 -4z m314 -16 c4 -16 3 -28 -1 -28 -5 0 -10 10
-12 22 -2 12 -9 23 -16 26 -9 3 -11 -6 -6 -37 4 -25 3 -41 -3 -41 -6 0 -13 18
-17 41 -7 42 -32 51 -30 10 1 -22 -10 -28 -21 -11 -3 5 -1 19 5 30 9 17 19 21
52 18 36 -3 43 -7 49 -30z m65 18 c8 -8 13 -29 12 -45 -3 -37 -18 -41 -18 -5
0 26 -23 58 -34 47 -3 -4 -6 -1 -6 5 0 17 29 15 46 -2z m167 -7 c21 -19 21
-21 5 -33 -10 -7 -18 -18 -18 -25 0 -6 -4 -11 -10 -11 -5 0 -10 5 -10 11 0 7
-8 18 -17 25 -17 12 -17 14 2 33 25 25 22 25 48 0z m138 -26 c3 -24 2 -43 -2
-43 -4 0 -9 17 -11 37 -3 42 -28 59 -28 19 0 -14 -4 -26 -10 -26 -5 0 -10 11
-10 25 0 14 -4 25 -9 25 -12 0 -23 -29 -15 -41 3 -5 0 -9 -5 -9 -15 0 -14 47
2 54 6 3 28 4 47 3 33 -2 35 -4 41 -44z m94 38 c3 -5 -4 -16 -16 -25 -13 -9
-19 -21 -16 -30 8 -21 34 -20 41 2 4 13 4 13 3 -3 -2 -14 -12 -21 -40 -26 -20
-3 -37 -2 -37 3 0 4 5 8 10 8 6 0 8 11 4 25 -9 38 32 75 51 46z m-1687 -28
c-10 -2 -26 -2 -35 0 -10 3 -2 5 17 5 19 0 27 -2 18 -5z m0 -20 c-10 -2 -26
-2 -35 0 -10 3 -2 5 17 5 19 0 27 -2 18 -5z m1743 -46 c-10 -9 -11 -8 -5 6 3
10 9 15 12 12 3 -3 0 -11 -7 -18z m-2528 -4 c-13 -2 -33 -2 -45 0 -13 2 -3 4
22 4 25 0 35 -2 23 -4z m1160 0 c-13 -2 -33 -2 -45 0 -13 2 -3 4 22 4 25 0 35
-2 23 -4z m265 0 c-10 -2 -28 -2 -40 0 -13 2 -5 4 17 4 22 1 32 -1 23 -4z
m365 0 c-13 -2 -33 -2 -45 0 -13 2 -3 4 22 4 25 0 35 -2 23 -4z m-1113 -130
c0 -18 -4 -33 -10 -33 -5 0 -10 16 -10 36 0 24 -4 34 -12 31 -7 -2 -12 -12
-12 -21 1 -9 -2 -16 -7 -16 -5 0 -9 9 -9 20 0 11 5 20 10 20 6 0 10 7 10 17 0
14 2 14 20 -2 12 -11 20 -31 20 -52z m1028 45 c18 -38 21 -78 6 -78 -9 0 -14
12 -14 35 0 19 -4 35 -10 35 -5 0 -10 -16 -10 -35 0 -19 -4 -35 -10 -35 -14 0
-12 56 2 80 16 26 22 25 36 -2z m160 0 c14 -30 21 -78 11 -78 -4 0 -9 14 -11
32 -3 35 -28 52 -28 19 0 -12 -4 -21 -10 -21 -13 0 -13 10 3 43 15 33 20 34
35 5z m-2190 -10 c7 -13 19 -33 28 -45 15 -20 15 -23 1 -23 -9 0 -18 10 -20
23 l-4 22 -8 -22 c-12 -37 -22 -27 -22 22 0 50 8 57 25 23z m72 -19 c0 -28 4
-39 13 -36 6 2 12 20 12 40 0 21 3 37 8 37 4 0 7 -7 7 -15 0 -9 7 -18 15 -21
8 -4 15 -10 15 -15 0 -4 -6 -6 -14 -3 -8 3 -16 -3 -19 -16 -4 -16 -12 -21 -29
-18 -19 2 -24 11 -29 46 -4 31 -2 42 8 42 9 0 13 -14 13 -41z m120 26 c18 -16
16 -75 -2 -75 -6 0 -7 11 -4 25 7 28 -11 54 -32 47 -6 -2 -12 1 -12 7 0 16 31
13 50 -4z m160 -12 c6 -16 15 -36 20 -45 8 -14 7 -18 -4 -18 -8 0 -17 11 -20
25 -7 27 -26 34 -26 10 0 -8 -4 -15 -10 -15 -15 0 -12 26 5 40 8 7 12 16 9 21
-3 5 0 9 6 9 6 0 15 -12 20 -27z m110 11 c0 -9 -9 -18 -20 -21 -16 -4 -18 -9
-9 -24 12 -23 29 -25 29 -4 0 8 5 15 10 15 14 0 12 -30 -2 -34 -37 -12 -78
-14 -78 -6 0 6 6 10 14 10 9 0 12 8 8 25 -2 13 -2 31 2 40 7 20 46 20 46 -1z
m166 5 c3 -6 1 -16 -5 -22 -6 -6 -11 -21 -11 -32 0 -26 -58 -49 -105 -42 -26
3 -24 4 10 6 55 2 82 23 68 53 -5 13 -8 29 -6 36 6 15 39 16 49 1z m74 -37
c10 -23 15 -42 9 -42 -5 0 -15 11 -21 25 -6 14 -16 25 -21 25 -5 0 -7 -11 -5
-25 4 -17 1 -25 -8 -25 -18 0 -18 30 1 56 8 12 11 25 7 29 -4 4 -1 6 6 4 7 -3
22 -23 32 -47z m114 33 c3 -8 12 -12 21 -9 10 4 15 0 15 -11 0 -9 -5 -13 -11
-10 -5 4 -18 0 -28 -9 -10 -10 -31 -18 -47 -19 -25 -2 -29 2 -32 27 -2 16 2
32 10 37 21 14 65 10 72 -6z m317 -18 c5 -20 4 -27 -4 -24 -7 2 -13 13 -15 25
-2 12 -10 22 -18 22 -16 0 -19 -16 -4 -25 13 -8 13 -55 1 -55 -5 0 -12 18 -16
41 -7 42 -28 49 -33 11 -4 -26 -22 -29 -22 -4 0 29 22 43 64 40 34 -3 41 -7
47 -31z m62 16 c18 -21 18 -73 -1 -73 -8 0 -10 8 -6 25 7 27 -13 54 -35 47 -8
-3 -11 0 -7 7 10 16 31 14 49 -6z m187 -24 c0 -6 -7 -12 -15 -15 -8 -4 -15
-12 -15 -20 0 -8 -4 -14 -10 -14 -5 0 -10 5 -10 11 0 7 -8 18 -17 25 -17 12
-17 14 2 32 18 17 22 17 43 4 12 -8 22 -18 22 -23z m121 -6 c4 -32 2 -43 -8
-43 -9 0 -13 14 -13 40 0 30 -4 40 -16 40 -12 0 -15 -7 -12 -25 3 -14 1 -25
-3 -25 -5 0 -9 12 -9 26 0 31 -23 28 -28 -4 -2 -12 -8 -20 -13 -17 -30 19 13
57 60 53 34 -3 36 -5 42 -45z m85 35 c4 -6 3 -13 -2 -15 -24 -9 -34 -21 -28
-36 8 -21 34 -22 34 -2 0 8 5 15 10 15 6 0 10 -3 10 -7 -1 -19 -18 -30 -55
-36 -32 -5 -37 -4 -25 6 8 7 14 22 12 35 -2 13 -1 30 2 38 7 17 32 18 42 2z
m219 -25 c26 -40 31 -53 16 -53 -5 0 -12 10 -16 23 l-8 22 -4 -22 c-2 -13 -9
-23 -15 -23 -6 0 -8 10 -4 25 4 14 2 34 -4 45 -19 36 8 22 35 -17z m110 28 c3
-5 1 -12 -4 -15 -5 -4 -11 0 -14 6 -2 7 -7 10 -11 7 -12 -11 6 -39 25 -39 11
0 19 -7 19 -16 0 -10 6 -14 15 -10 9 3 15 0 15 -8 0 -9 -8 -12 -25 -8 -14 2
-25 11 -25 19 0 12 -8 14 -37 10 -33 -5 -36 -4 -21 7 10 7 15 16 12 19 -4 3
-4 13 -1 22 7 16 42 21 52 6z m416 -23 c4 -16 3 -28 -1 -28 -5 0 -10 10 -12
22 -2 12 -9 23 -16 26 -9 3 -11 -6 -6 -37 4 -25 3 -41 -3 -41 -6 0 -13 18 -17
41 -7 42 -32 51 -30 10 1 -22 -10 -28 -21 -11 -3 5 -1 19 5 30 9 17 19 21 52
18 36 -3 43 -7 49 -30z m65 18 c8 -8 13 -29 12 -45 -3 -37 -18 -41 -18 -5 0
26 -23 58 -34 47 -3 -4 -6 -1 -6 5 0 17 29 15 46 -2z m-688 -23 c-10 -2 -26
-2 -35 0 -10 3 -2 5 17 5 19 0 27 -2 18 -5z m0 -20 c-10 -2 -26 -2 -35 0 -10
3 -2 5 17 5 19 0 27 -2 18 -5z m756 -38 c-4 -8 -8 -15 -10 -15 -2 0 -4 7 -4
15 0 8 4 15 10 15 5 0 7 -7 4 -15z m-2186 -12 c-10 -2 -28 -2 -40 0 -13 2 -5
4 17 4 22 1 32 -1 23 -4z m635 0 c-13 -2 -33 -2 -45 0 -13 2 -3 4 22 4 25 0
35 -2 23 -4z m1200 0 c-13 -2 -33 -2 -45 0 -13 2 -3 4 22 4 25 0 35 -2 23 -4z
m-573 -80 c0 -7 -7 -10 -17 -6 -15 5 -16 3 -5 -8 15 -16 16 -69 1 -69 -6 0 -9
10 -8 23 3 31 -11 59 -27 53 -8 -3 -14 0 -14 7 0 7 14 12 35 12 21 0 35 -5 35
-12z m-1671 -19 c2 -10 8 -22 15 -26 8 -6 8 -8 -1 -8 -6 0 -13 -10 -15 -22 -2
-12 -10 -23 -18 -25 -12 -4 -12 -3 -1 5 7 5 13 26 13 47 0 21 -6 42 -13 47
-11 8 -11 9 1 5 8 -2 17 -12 19 -23z m509 4 c7 -13 19 -33 28 -45 15 -20 15
-23 1 -23 -9 0 -18 10 -20 23 l-4 22 -8 -22 c-10 -32 -29 -29 -21 2 4 14 2 34
-4 45 -8 15 -8 20 3 20 8 0 19 -10 25 -22z m132 8 c6 -8 18 -12 26 -9 10 4 12
0 8 -11 -3 -9 -10 -13 -16 -10 -5 3 -15 -1 -21 -9 -35 -46 -101 -21 -79 28 13
29 61 35 82 11z m161 -33 c4 -32 2 -43 -8 -43 -9 0 -13 14 -13 41 0 28 -4 39
-12 36 -7 -2 -13 -14 -12 -26 0 -11 -3 -21 -8 -21 -4 0 -8 12 -8 26 0 31 -23
28 -28 -4 -4 -26 -22 -29 -22 -4 0 29 22 43 65 40 39 -3 40 -4 46 -45z m76 25
c-3 -8 -6 -5 -6 6 -1 11 2 17 5 13 3 -3 4 -12 1 -19z m20 0 c-3 -8 -6 -5 -6 6
-1 11 2 17 5 13 3 -3 4 -12 1 -19z m97 6 c9 -24 7 -44 -4 -44 -5 0 -10 12 -10
26 0 16 -5 24 -12 21 -7 -2 -13 -20 -13 -40 0 -23 -5 -37 -12 -37 -17 0 -17
62 -1 78 17 17 45 15 52 -4z m66 6 c0 -5 7 -10 15 -10 8 0 15 -4 15 -10 0 -5
-7 -7 -15 -4 -11 5 -15 -1 -15 -20 0 -15 -8 -30 -19 -36 -25 -13 -31 -13 -31
0 0 6 7 10 15 10 9 0 15 9 15 25 0 19 -4 23 -17 18 -16 -5 -15 -3 2 15 22 23
35 27 35 12z m130 -4 c6 -8 18 -12 26 -9 8 3 14 1 14 -5 0 -5 -8 -13 -17 -16
-10 -4 -31 -14 -46 -22 -16 -9 -35 -13 -43 -10 -17 7 -19 62 -1 69 24 10 55 7
67 -7z m108 -7 c10 -15 10 -24 2 -34 -7 -8 -9 -19 -5 -25 3 -5 -1 -10 -9 -10
-19 0 -19 1 -6 34 6 17 6 26 0 26 -6 0 -10 7 -10 15 0 21 13 19 28 -6z m119
-24 c11 -25 17 -45 12 -45 -5 0 -15 11 -21 25 -11 25 -19 30 -31 18 -4 -3 1
-12 11 -19 16 -12 16 -13 -1 -20 -31 -12 -42 11 -21 43 10 15 17 31 16 36 -1
4 2 7 6 7 5 0 17 -20 29 -45z m63 35 c0 -5 7 -10 15 -10 8 0 15 -4 15 -10 0
-5 -7 -7 -16 -3 -14 5 -16 1 -12 -25 2 -18 1 -32 -4 -32 -4 0 -8 14 -8 31 0
24 -4 30 -15 25 -8 -3 -15 -1 -15 4 0 6 7 10 16 10 8 0 12 5 9 10 -3 6 -1 10
4 10 6 0 11 -4 11 -10z m104 -6 c10 -25 7 -74 -4 -74 -5 0 -10 19 -10 41 0 36
-2 41 -20 36 -11 -3 -20 -1 -20 4 0 16 48 10 54 -7z m221 -9 c0 -13 -8 -21
-22 -23 -18 -3 -23 2 -23 17 0 35 -20 24 -21 -11 -1 -18 -1 -36 0 -40 0 -5 -6
-8 -14 -8 -8 0 -12 6 -9 14 3 7 -2 16 -10 19 -16 7 -22 38 -9 51 4 4 30 6 58
4 42 -3 50 -6 50 -23z m102 3 c-3 -8 -6 -5 -6 6 -1 11 2 17 5 13 3 -3 4 -12 1
-19z m20 0 c-3 -8 -6 -5 -6 6 -1 11 2 17 5 13 3 -3 4 -12 1 -19z m-87 2 c0 -5
-4 -10 -10 -10 -5 0 -10 5 -10 10 0 6 5 10 10 10 6 0 10 -4 10 -10z m30 0 c0
-5 -4 -10 -10 -10 -5 0 -10 5 -10 10 0 6 5 10 10 10 6 0 10 -4 10 -10z m-537
-51 c3 -13 1 -19 -6 -16 -15 5 -22 37 -9 37 5 0 12 -9 15 -21z m507 11 c0 -5
-4 -10 -10 -10 -5 0 -10 5 -10 10 0 6 5 10 10 10 6 0 10 -4 10 -10z m30 0 c0
-5 -4 -10 -10 -10 -5 0 -10 5 -10 10 0 6 5 10 10 10 6 0 10 -4 10 -10z m121
-43 c-10 -9 -11 -8 -5 6 3 10 9 15 12 12 3 -3 0 -11 -7 -18z"/>
<path d="M12227 7554 c-8 -8 1 -24 14 -24 5 0 9 7 9 15 0 15 -12 20 -23 9z"/>
<path d="M12317 7454 c-8 -8 1 -24 14 -24 5 0 9 7 9 15 0 15 -12 20 -23 9z"/>
<path d="M12490 7505 c0 -52 1 -55 25 -55 24 0 25 3 25 55 0 52 -1 55 -25 55
-24 0 -25 -3 -25 -55z"/>
<path d="M12550 7505 c0 -52 1 -55 25 -55 24 0 25 3 25 55 0 52 -1 55 -25 55
-24 0 -25 -3 -25 -55z"/>
<path d="M11980 7495 c0 -25 3 -45 8 -45 4 0 20 11 36 23 l29 24 -31 21 c-16
12 -33 22 -36 22 -3 0 -6 -20 -6 -45z"/>
<path d="M960 7480 c0 -5 7 -10 15 -10 8 0 15 5 15 10 0 6 -7 10 -15 10 -8 0
-15 -4 -15 -10z"/>
<path d="M1100 7480 c0 -5 7 -10 15 -10 8 0 15 5 15 10 0 6 -7 10 -15 10 -8 0
-15 -4 -15 -10z"/>
<path d="M1670 7205 c0 -16 6 -25 15 -25 9 0 15 9 15 25 0 16 -6 25 -15 25 -9
0 -15 -9 -15 -25z"/>
<path d="M850 7220 c0 -5 7 -10 15 -10 8 0 15 5 15 10 0 6 -7 10 -15 10 -8 0
-15 -4 -15 -10z"/>
<path d="M1460 7190 c0 -5 7 -10 15 -10 8 0 15 5 15 10 0 6 -7 10 -15 10 -8 0
-15 -4 -15 -10z"/>
<path d="M1600 7190 c0 -5 7 -10 15 -10 8 0 15 5 15 10 0 6 -7 10 -15 10 -8 0
-15 -4 -15 -10z"/>
<path d="M1850 7190 c0 -5 7 -10 15 -10 8 0 15 5 15 10 0 6 -7 10 -15 10 -8 0
-15 -4 -15 -10z"/>
<path d="M1450 6844 c0 -8 5 -12 10 -9 6 3 10 10 10 16 0 5 -4 9 -10 9 -5 0
-10 -7 -10 -16z"/>
<path d="M2110 6849 c0 -5 5 -7 10 -4 6 3 10 8 10 11 0 2 -4 4 -10 4 -5 0 -10
-5 -10 -11z"/>
<path d="M1220 6850 c0 -11 5 -20 10 -20 6 0 10 9 10 20 0 11 -4 20 -10 20 -5
0 -10 -9 -10 -20z"/>
<path d="M1280 6855 c0 -8 5 -15 10 -15 6 0 10 7 10 15 0 8 -4 15 -10 15 -5 0
-10 -7 -10 -15z"/>
<path d="M1532 6840 c0 -19 2 -27 5 -17 2 9 2 25 0 35 -3 9 -5 1 -5 -18z"/>
<path d="M1590 6845 c0 -14 5 -25 10 -25 6 0 10 11 10 25 0 14 -4 25 -10 25
-5 0 -10 -11 -10 -25z"/>
<path d="M1740 6855 c0 -8 5 -15 10 -15 6 0 10 7 10 15 0 8 -4 15 -10 15 -5 0
-10 -7 -10 -15z"/>
<path d="M1886 6855 c-6 -18 2 -45 15 -45 5 0 9 14 9 30 0 32 -14 40 -24 15z"/>
<path d="M1950 6845 c0 -14 5 -25 10 -25 6 0 10 11 10 25 0 14 -4 25 -10 25
-5 0 -10 -11 -10 -25z"/>
<path d="M1370 6679 c0 -5 5 -7 10 -4 6 3 10 8 10 11 0 2 -4 4 -10 4 -5 0 -10
-5 -10 -11z"/>
<path d="M1620 6660 c0 -16 5 -30 10 -30 6 0 10 14 10 30 0 17 -4 30 -10 30
-5 0 -10 -13 -10 -30z"/>
<path d="M1690 6665 c0 -15 4 -24 10 -20 6 3 10 12 10 20 0 8 -4 17 -10 20 -6
4 -10 -5 -10 -20z"/>
<path d="M2075 6678 c-4 -10 -4 -26 0 -35 8 -17 8 -17 12 0 3 9 3 25 0 35 -4
16 -4 16 -12 0z"/>
<path d="M2140 6664 c0 -14 4 -23 10 -19 6 3 10 15 10 26 0 10 -4 19 -10 19
-5 0 -10 -12 -10 -26z"/>
<path d="M1370 6499 c0 -5 5 -7 10 -4 6 3 10 8 10 11 0 2 -4 4 -10 4 -5 0 -10
-5 -10 -11z"/>
<path d="M1610 6480 c0 -5 5 -10 10 -10 6 0 10 5 10 10 0 6 -4 10 -10 10 -5 0
-10 -4 -10 -10z"/>
<path d="M1855 6500 c-3 -5 -2 -10 4 -10 5 0 13 5 16 10 3 6 2 10 -4 10 -5 0
-13 -4 -16 -10z"/>
<path d="M1640 5774 c0 -8 5 -12 10 -9 6 3 10 10 10 16 0 5 -4 9 -10 9 -5 0
-10 -7 -10 -16z"/>
<path d="M2050 5761 c0 -6 5 -13 10 -16 6 -3 10 1 10 9 0 9 -4 16 -10 16 -5 0
-10 -4 -10 -9z"/>
<path d="M1450 5584 c0 -8 5 -12 10 -9 6 3 10 10 10 16 0 5 -4 9 -10 9 -5 0
-10 -7 -10 -16z"/>
<path d="M1220 5590 c0 -11 5 -20 10 -20 6 0 10 9 10 20 0 11 -4 20 -10 20 -5
0 -10 -9 -10 -20z"/>
<path d="M1280 5595 c0 -8 5 -15 10 -15 6 0 10 7 10 15 0 8 -4 15 -10 15 -5 0
-10 -7 -10 -15z"/>
<path d="M1532 5580 c0 -19 2 -27 5 -17 2 9 2 25 0 35 -3 9 -5 1 -5 -18z"/>
<path d="M1590 5585 c0 -14 5 -25 10 -25 6 0 10 11 10 25 0 14 -4 25 -10 25
-5 0 -10 -11 -10 -25z"/>
<path d="M1740 5595 c0 -8 5 -15 10 -15 6 0 10 7 10 15 0 8 -4 15 -10 15 -5 0
-10 -7 -10 -15z"/>
<path d="M1370 5419 c0 -5 5 -7 10 -4 6 3 10 8 10 11 0 2 -4 4 -10 4 -5 0 -10
-5 -10 -11z"/>
<path d="M1365 4870 c-3 -5 -1 -10 4 -10 6 0 11 5 11 10 0 6 -2 10 -4 10 -3 0
-8 -4 -11 -10z"/>
<path d="M2690 4870 c0 -5 5 -10 10 -10 6 0 10 5 10 10 0 6 -4 10 -10 10 -5 0
-10 -4 -10 -10z"/>
<path d="M1225 4878 c-4 -10 -4 -26 0 -35 8 -17 8 -17 12 0 3 9 3 25 0 35 -4
16 -4 16 -12 0z"/>
<path d="M1290 4865 c1 -26 2 -28 11 -12 8 14 8 22 0 30 -8 8 -11 3 -11 -18z"/>
<path d="M1445 4878 c-4 -10 -4 -26 0 -35 8 -17 8 -17 12 0 3 9 3 25 0 35 -4
16 -4 16 -12 0z"/>
<path d="M1510 4865 c0 -15 4 -24 10 -20 6 3 10 12 10 20 0 8 -4 17 -10 20 -6
4 -10 -5 -10 -20z"/>
<path d="M1660 4874 c0 -8 5 -12 10 -9 6 3 10 10 10 16 0 5 -4 9 -10 9 -5 0
-10 -7 -10 -16z"/>
<path d="M1910 4880 c0 -5 5 -10 10 -10 6 0 10 5 10 10 0 6 -4 10 -10 10 -5 0
-10 -4 -10 -10z"/>
<path d="M2477 4883 c-11 -10 -8 -53 3 -53 6 0 10 14 10 30 0 31 -2 35 -13 23z"/>
<path d="M2540 4865 c0 -15 4 -24 10 -20 6 3 10 12 10 20 0 8 -4 17 -10 20 -6
4 -10 -5 -10 -20z"/>
<path d="M3080 4690 c0 -5 5 -10 10 -10 6 0 10 5 10 10 0 6 -4 10 -10 10 -5 0
-10 -4 -10 -10z"/>
<path d="M2867 4703 c-11 -10 -8 -53 3 -53 6 0 10 14 10 30 0 31 -2 35 -13 23z"/>
<path d="M2930 4685 c0 -15 4 -24 10 -20 6 3 10 12 10 20 0 8 -4 17 -10 20 -6
4 -10 -5 -10 -20z"/>
<path d="M1750 4520 c0 -5 5 -10 10 -10 6 0 10 5 10 10 0 6 -4 10 -10 10 -5 0
-10 -4 -10 -10z"/>
<path d="M1500 4340 c0 -5 5 -10 10 -10 6 0 10 5 10 10 0 6 -4 10 -10 10 -5 0
-10 -4 -10 -10z"/>
<path d="M2220 3780 c0 -5 5 -10 10 -10 6 0 10 5 10 10 0 6 -4 10 -10 10 -5 0
-10 -4 -10 -10z"/>
<path d="M2465 3800 c-3 -5 -2 -10 4 -10 5 0 13 5 16 10 3 6 2 10 -4 10 -5 0
-13 -4 -16 -10z"/>
<path d="M2710 3799 c0 -5 5 -7 10 -4 6 3 10 8 10 11 0 2 -4 4 -10 4 -5 0 -10
-5 -10 -11z"/>
<path d="M1500 3620 c0 -5 5 -10 10 -10 6 0 10 5 10 10 0 6 -4 10 -10 10 -5 0
-10 -4 -10 -10z"/>
<path d="M3020 2889 c0 -5 5 -7 10 -4 6 3 10 8 10 11 0 2 -4 4 -10 4 -5 0 -10
-5 -10 -11z"/>
<path d="M1441 2884 c0 -11 3 -14 6 -6 3 7 2 16 -1 19 -3 4 -6 -2 -5 -13z"/>
<path d="M1470 2884 c0 -8 5 -12 10 -9 6 4 8 11 5 16 -9 14 -15 11 -15 -7z"/>
<path d="M1534 2899 c-3 -6 -1 -16 5 -22 8 -8 11 -5 11 11 0 24 -5 28 -16 11z"/>
<path d="M1600 2894 c0 -8 5 -12 10 -9 6 3 10 10 10 16 0 5 -4 9 -10 9 -5 0
-10 -7 -10 -16z"/>
<path d="M1675 2898 c-4 -10 -4 -26 0 -35 8 -17 8 -17 12 0 3 9 3 25 0 35 -4
16 -4 16 -12 0z"/>
<path d="M1710 2885 c0 -15 4 -24 10 -20 6 3 10 12 10 20 0 8 -4 17 -10 20 -6
4 -10 -5 -10 -20z"/>
<path d="M2240 2899 c0 -5 5 -7 10 -4 6 3 10 8 10 11 0 2 -4 4 -10 4 -5 0 -10
-5 -10 -11z"/>
<path d="M2800 2880 c0 -16 5 -30 10 -30 6 0 10 14 10 30 0 17 -4 30 -10 30
-5 0 -10 -13 -10 -30z"/>
<path d="M2860 2885 c0 -14 5 -25 10 -25 6 0 10 11 10 25 0 14 -4 25 -10 25
-5 0 -10 -11 -10 -25z"/>
<path d="M3351 2884 c0 -11 3 -14 6 -6 3 7 2 16 -1 19 -3 4 -6 -2 -5 -13z"/>
<path d="M3380 2884 c0 -8 5 -12 10 -9 6 4 8 11 5 16 -9 14 -15 11 -15 -7z"/>
<path d="M3444 2899 c-3 -6 -1 -16 5 -22 8 -8 11 -5 11 11 0 24 -5 28 -16 11z"/>
<path d="M3510 2894 c0 -8 5 -12 10 -9 6 3 10 10 10 16 0 5 -4 9 -10 9 -5 0
-10 -7 -10 -16z"/>
<path d="M3080 2710 c0 -5 5 -10 10 -10 6 0 10 5 10 10 0 6 -4 10 -10 10 -5 0
-10 -4 -10 -10z"/>
<path d="M2867 2723 c-11 -10 -8 -53 3 -53 6 0 10 14 10 30 0 31 -2 35 -13 23z"/>
<path d="M2930 2705 c0 -15 4 -24 10 -20 6 3 10 12 10 20 0 8 -4 17 -10 20 -6
4 -10 -5 -10 -20z"/>
<path d="M2120 2540 c0 -5 5 -10 10 -10 6 0 10 5 10 10 0 6 -4 10 -10 10 -5 0
-10 -4 -10 -10z"/>
<path d="M2290 2535 c0 -8 5 -15 10 -15 6 0 10 7 10 15 0 8 -4 15 -10 15 -5 0
-10 -7 -10 -15z"/>
<path d="M2444 2535 c-8 -20 3 -48 16 -40 13 8 13 55 0 55 -6 0 -13 -7 -16
-15z"/>
<path d="M2480 2525 c0 -14 5 -25 10 -25 6 0 10 11 10 25 0 14 -4 25 -10 25
-5 0 -10 -11 -10 -25z"/>
<path d="M3100 2540 c0 -5 5 -10 10 -10 6 0 10 5 10 10 0 6 -4 10 -10 10 -5 0
-10 -4 -10 -10z"/>
<path d="M2271 2164 c0 -11 3 -14 6 -6 3 7 2 16 -1 19 -3 4 -6 -2 -5 -13z"/>
<path d="M2301 2164 c0 -11 3 -14 6 -6 3 7 2 16 -1 19 -3 4 -6 -2 -5 -13z"/>
<path d="M2365 2177 c-4 -10 -5 -21 -1 -24 10 -10 18 4 13 24 -4 17 -4 17 -12
0z"/>
<path d="M2431 2174 c0 -11 3 -14 6 -6 3 7 2 16 -1 19 -3 4 -6 -2 -5 -13z"/>
<path d="M3230 1989 c0 -5 5 -7 10 -4 6 3 10 8 10 11 0 2 -4 4 -10 4 -5 0 -10
-5 -10 -11z"/>
<path d="M1500 2000 c0 -5 5 -10 10 -10 6 0 10 5 10 10 0 6 -4 10 -10 10 -5 0
-10 -4 -10 -10z"/>
<path d="M1762 1980 c0 -19 2 -27 5 -17 2 9 2 25 0 35 -3 9 -5 1 -5 -18z"/>
<path d="M1820 1985 c0 -14 5 -25 10 -25 6 0 10 11 10 25 0 14 -4 25 -10 25
-5 0 -10 -11 -10 -25z"/>
<path d="M1980 1980 c0 -16 5 -30 10 -30 6 0 10 14 10 30 0 17 -4 30 -10 30
-5 0 -10 -13 -10 -30z"/>
<path d="M2052 1985 c0 -16 2 -22 5 -12 2 9 2 23 0 30 -3 6 -5 -1 -5 -18z"/>
<path d="M2445 2000 c-3 -5 -1 -10 4 -10 6 0 11 5 11 10 0 6 -2 10 -4 10 -3 0
-8 -4 -11 -10z"/>
<path d="M3006 1995 c-6 -18 2 -45 15 -45 5 0 9 14 9 30 0 32 -14 40 -24 15z"/>
<path d="M3070 1985 c0 -14 5 -25 10 -25 6 0 10 11 10 25 0 14 -4 25 -10 25
-5 0 -10 -11 -10 -25z"/>
<path d="M2300 1639 c0 -5 5 -7 10 -4 6 3 10 8 10 11 0 2 -4 4 -10 4 -5 0 -10
-5 -10 -11z"/>
<path d="M2620 1620 c0 -16 5 -30 10 -30 6 0 10 14 10 30 0 17 -4 30 -10 30
-5 0 -10 -13 -10 -30z"/>
<path d="M2650 1625 c0 -14 5 -25 10 -25 6 0 10 11 10 25 0 14 -4 25 -10 25
-5 0 -10 -11 -10 -25z"/>
<path d="M4550 1625 c0 -8 5 -15 10 -15 6 0 10 7 10 15 0 8 -4 15 -10 15 -5 0
-10 -7 -10 -15z"/>
<path d="M4580 1625 c0 -8 5 -15 10 -15 6 0 10 7 10 15 0 8 -4 15 -10 15 -5 0
-10 -7 -10 -15z"/>
<path d="M4650 1630 c0 -11 5 -20 10 -20 6 0 10 9 10 20 0 11 -4 20 -10 20 -5
0 -10 -9 -10 -20z"/>
<path d="M4710 1635 c0 -8 5 -15 10 -15 6 0 10 7 10 15 0 8 -4 15 -10 15 -5 0
-10 -7 -10 -15z"/>
<path d="M2060 1280 c0 -5 5 -10 10 -10 6 0 10 5 10 10 0 6 -4 10 -10 10 -5 0
-10 -4 -10 -10z"/>
<path d="M2230 1275 c0 -8 5 -15 10 -15 6 0 10 7 10 15 0 8 -4 15 -10 15 -5 0
-10 -7 -10 -15z"/>
<path d="M2384 1275 c-8 -20 3 -48 16 -40 13 8 13 55 0 55 -6 0 -13 -7 -16
-15z"/>
<path d="M2420 1265 c0 -14 5 -25 10 -25 6 0 10 11 10 25 0 14 -4 25 -10 25
-5 0 -10 -11 -10 -25z"/>
<path d="M3470 1279 c0 -5 5 -7 10 -4 6 3 10 8 10 11 0 2 -4 4 -10 4 -5 0 -10
-5 -10 -11z"/>
<path d="M3790 1260 c0 -16 5 -30 10 -30 6 0 10 14 10 30 0 17 -4 30 -10 30
-5 0 -10 -13 -10 -30z"/>
<path d="M3820 1265 c0 -14 5 -25 10 -25 6 0 10 11 10 25 0 14 -4 25 -10 25
-5 0 -10 -11 -10 -25z"/>
<path d="M4600 1279 c0 -5 5 -7 10 -4 6 3 10 8 10 11 0 2 -4 4 -10 4 -5 0 -10
-5 -10 -11z"/>
<path d="M2310 920 c0 -5 5 -10 10 -10 6 0 10 5 10 10 0 6 -4 10 -10 10 -5 0
-10 -4 -10 -10z"/>
<path d="M2480 915 c0 -8 5 -15 10 -15 6 0 10 7 10 15 0 8 -4 15 -10 15 -5 0
-10 -7 -10 -15z"/>
<path d="M2635 918 c-4 -10 -4 -26 0 -35 8 -17 8 -17 12 0 3 9 3 25 0 35 -4
16 -4 16 -12 0z"/>
<path d="M2670 905 c0 -15 4 -24 10 -20 6 3 10 12 10 20 0 8 -4 17 -10 20 -6
4 -10 -5 -10 -20z"/>
<path d="M2390 720 c0 -5 5 -10 10 -10 6 0 10 5 10 10 0 6 -4 10 -10 10 -5 0
-10 -4 -10 -10z"/>
<path d="M2600 740 c0 -5 5 -10 10 -10 6 0 10 5 10 10 0 6 -4 10 -10 10 -5 0
-10 -4 -10 -10z"/>
<path d="M3270 739 c0 -5 5 -7 10 -4 6 3 10 8 10 11 0 2 -4 4 -10 4 -5 0 -10
-5 -10 -11z"/>
<path d="M3597 743 c-11 -10 -8 -53 3 -53 6 0 10 14 10 30 0 31 -2 35 -13 23z"/>
<path d="M3630 723 c0 -21 3 -24 9 -14 5 8 7 20 4 28 -8 21 -13 15 -13 -14z"/>
<path d="M4400 740 c0 -5 5 -10 10 -10 6 0 10 5 10 10 0 6 -4 10 -10 10 -5 0
-10 -4 -10 -10z"/>
<path d="M2065 560 c-3 -5 -1 -10 4 -10 6 0 11 5 11 10 0 6 -2 10 -4 10 -3 0
-8 -4 -11 -10z"/>
<path d="M2230 561 c0 -6 5 -13 10 -16 6 -3 10 1 10 9 0 9 -4 16 -10 16 -5 0
-10 -4 -10 -9z"/>
<path d="M2386 555 c-7 -19 3 -47 15 -39 12 7 12 54 0 54 -5 0 -11 -7 -15 -15z"/>
<path d="M2420 545 c0 -14 5 -25 10 -25 6 0 10 11 10 25 0 14 -4 25 -10 25 -5
0 -10 -11 -10 -25z"/>
<path d="M2950 540 c0 -5 5 -10 10 -10 6 0 10 5 10 10 0 6 -4 10 -10 10 -5 0
-10 -4 -10 -10z"/>
<path d="M3190 560 c0 -5 5 -10 10 -10 6 0 10 5 10 10 0 6 -4 10 -10 10 -5 0
-10 -4 -10 -10z"/>
<path d="M2085 378 c-4 -10 -4 -26 0 -35 8 -17 8 -17 12 0 3 9 3 25 0 35 -4
16 -4 16 -12 0z"/>
<path d="M2120 365 c0 -15 4 -24 10 -20 6 3 10 12 10 20 0 8 -4 17 -10 20 -6
4 -10 -5 -10 -20z"/>
<path d="M2635 370 c-7 -23 2 -43 16 -35 12 8 12 55 0 55 -5 0 -12 -9 -16 -20z"/>
<path d="M2670 365 c0 -14 5 -25 10 -25 6 0 10 11 10 25 0 14 -4 25 -10 25 -5
0 -10 -11 -10 -25z"/>
<path d="M3220 370 c0 -11 5 -20 10 -20 6 0 10 9 10 20 0 11 -4 20 -10 20 -5
0 -10 -9 -10 -20z"/>
<path d="M3280 375 c0 -8 5 -15 10 -15 6 0 10 7 10 15 0 8 -4 15 -10 15 -5 0
-10 -7 -10 -15z"/>
</g>
</svg>
